<svg id="Graphic_Elements" data-name="Graphic Elements" xmlns="http://www.w3.org/2000/svg" viewBox="0 0 1200 1200"><title>job725-188-p</title><path d="M1143.24,596.25c-.38-7.3-.26-14.64-.79-21.93-1-13.7-2.56-27.34-4.37-41-2.45-18.43-5.92-36.67-9.72-54.84-1.72-8.21-3.53-16.44-6-24.45-7.85-25.71-16.35-51.2-28.36-75.34-6.28-12.65-12.51-25.34-19.21-37.76-5.2-9.65-11.1-18.92-16.68-28.37-8.8-14.9-18-29.55-29.1-42.87-8.36-10-16.48-20.24-25.23-29.9-20.4-22.54-42.85-43-66.28-62.28-9.29-7.66-19.07-14.75-28.89-21.74-7.08-5-14.71-9.29-21.86-14.21a339.67,339.67,0,0,0-50-28.31,582.68,582.68,0,0,0-79.3-29.65c-16.1-4.78-32.34-9.07-48.73-12.63-16.59-3.61-33.29-6.77-50.25-8.28-12.3-1.1-24.51-3.21-36.92-2.63-.29,0-.59,0-.89,0-14.91,0-29.84-.27-44.74.19a506.35,506.35,0,0,0-53.73,4.61c-17.81,2.46-35.57,5.2-53,9.61-10.82,2.73-21.71,5.25-32.37,8.49-11.52,3.5-22.82,7.73-34.21,11.65-17,5.85-33.76,12.36-49.71,20.74-10.5,5.51-21.13,10.8-31.38,16.73a380.63,380.63,0,0,0-43,28.49c-12.73,9.86-25.13,20.14-37.5,30.46-14.58,12.16-26.92,26.66-40.76,39.61-2.45,2.29-4.57,4.93-6.93,7.32a308.58,308.58,0,0,0-29,34.45,638.31,638.31,0,0,0-35.4,54c-6.69,11.4-13.34,22.86-19.13,34.79q-12.36,25.5-22.22,52a430.6,430.6,0,0,0-19.86,72.5c-3.51,19-7.18,38-8.39,57.42-.64,10.25-2,20.45-2.34,30.74-.77,21.84-.91,43.67,1,65.47.55,6.4,1.14,12.8,2,19.16,1.32,9.39,2.88,18.75,4.44,28.1s2.75,18.76,5.39,27.91c1.48,5.12,2.88,10.28,4.06,15.47,6,26.41,15.7,51.56,25.94,76.52a468.34,468.34,0,0,0,28.5,56.94c7.93,13.66,15.45,27.58,25,40.27,15.21,20.22,30.3,40.48,47.51,59.12a544,544,0,0,0,52.44,49.76,520,520,0,0,0,60.68,43.5c9.35,5.72,18.64,11.58,28.28,16.8,16.5,8.94,33.7,16.49,50.87,24.08a452.79,452.79,0,0,0,52.49,19.34,519.3,519.3,0,0,0,57.77,14.28c16.15,2.9,32.39,5.2,48.71,6.75a507,507,0,0,0,53.3,2.59c13.43-.48,26.88-.66,40.28-1.54a293.63,293.63,0,0,0,33.53-4c15.06-2.73,30.26-4.68,45-8.89,12.24-3.49,24.66-6.42,36.8-10.24,20.44-6.43,40.7-13.34,60.19-22.45,23.36-10.93,46.82-21.62,68.4-35.92,4.45-3,9-5.8,13.45-8.68a499.4,499.4,0,0,0,82.4-66.6q16.4-16.29,31.7-33.66c15.73-17.9,30.33-36.67,43-57a526.61,526.61,0,0,0,37.27-70.39,585.8,585.8,0,0,0,23.06-62.51c7.33-24.54,13.82-49.27,16.91-74.76,1.88-15.39,4.22-30.74,4.78-46.27C1142.69,623.51,1144,609.91,1143.24,596.25Zm-7.79-43.89c.7,6.88,1.33,13.77,1.77,20.67a40.57,40.57,0,0,1-.48,7.37c-1.26,10.5-2.2,21.05-4,31.46a406.08,406.08,0,0,1-11,47.6c-9.49,32.11-23.13,62.37-39.9,91.27-4.56,7.86-9.68,15.39-14.55,23.07-.2.31-.48.57-1,1.21-.27-1.36-.52-2.35-.65-3.37-.76-5.58-1.61-11.15-2.2-16.75-.74-7-2.91-13.7-4.36-20.56-3.27-15.5-8.18-30.53-13.3-45.47-3.22-9.42-7.29-18.58-11.35-27.69-4.37-9.83-9.18-19.47-13.8-29.19l-1.36-2.86c3.69-6.53,7.35-12.86,10.86-19.27a92.72,92.72,0,0,0,4-8.56,5.43,5.43,0,0,1,3-3.06c5.94-2.68,11.8-5.54,17.75-8.2,2.26-1,4.18-2.18,4.93-4.71a3.51,3.51,0,0,1,.61-1c.17,0,.3,0,.35,0,2.64,2.58,5.19,1.92,7.88,0,1.59-1.15,3.43-2,5.11-3a1.88,1.88,0,0,1,2.44.1c.23.18.51.31.72.51a12.86,12.86,0,0,0,11.18,3.38,16.82,16.82,0,0,1,15,5c1.81,1.79,4.1,3.1,6.08,4.73,2.54,2.09,5.43,1.39,8.21,1,1.32-.16,1.72-1.49,1.61-2.8-.23-2.66-.46-5.32-.71-8-.79-8.17-1.55-16.34-2.45-24.49a6.66,6.66,0,0,0-1.6-3.35c-2.62-3.08-5.37-6.06-8.15-9a4.63,4.63,0,0,1-1.41-3.71c.11-1.67-.14-3.37,0-5,1-10.18-2.17-19.75-4.46-29.43a7.7,7.7,0,0,0-2.44-3.57c-1.94-1.73-2.93-3.55-2.15-6.21.35-1.21.17-2.57.43-3.82a8.7,8.7,0,0,0-1.39-7.3c-.57-.78-.55-2-.76-3a2.47,2.47,0,0,1,.08-.89,51.36,51.36,0,0,0,0-19.42,62.83,62.83,0,0,0-1.76-6.52c-.22-.8-.89-1.69.6-2.25a6.06,6.06,0,0,1,.7.79c3.3,5.51,6.84,10.89,9.83,16.56,7.79,14.76,15.88,29.39,22.09,44.93,3,7.51,5.8,15.12,8.33,22.81A47.51,47.51,0,0,1,1135.45,552.36ZM1005.13,780.25c-.82-5.17-1.51-10.36-2.33-15.53-.53-3.37-2.4-4-5.13-1.77-3.57,2.86-6.78,6-8.89,10.17A37.48,37.48,0,0,1,978,785.92c-1.87,1.44-3.52,3.17-5.36,4.67a5.7,5.7,0,0,0-2.53,4.47c0,4.6-2.47,6.79-6.62,8.42a17.59,17.59,0,0,1-14.16-.21c2.83-2.95,5.49-5.71,8.14-8.49a16.32,16.32,0,0,0,1.92-2.25c9-13.95,19.5-26.86,29.36-40.21,5.09-6.9,9.19-14.26,11.36-22.6a44.47,44.47,0,0,1,4.48-10.59c4.25-7.57,8.59-15.12,12.42-22.92,2.56-5.21,4.32-10.81,6.37-16.25a6.14,6.14,0,0,0,.2-2.35c-.28-7.5-.56-15-.9-22.51-.15-3.52-.78-4.08-4.29-4.1-3.06,0-6.14-.16-9.18,0a6,6,0,0,1-5.6-2.47,46,46,0,0,0-3.46-3.66c-2.68-2.72-4-2.6-5.92.62Q988.1,655.84,982,666.19c-2,3.35-3.32,3.8-7,2.3-5.79-2.35-4.85-2.41-9.36,1.39-2.8,2.36-5.8,3-9.26,1.26-4.61-2.26-9.43-4.1-14-6.47-4-2.11-8.17-1.91-12.4-1.49-1.47.15-2.91.57-4.38.76a25.06,25.06,0,0,1-2.89,0c.15-2.12,1.17-2.7,2.75-2.79,2.36-.14,4.72-.46,7.09-.52a7.76,7.76,0,0,0,4.6-1.72c2.62-1.93,5.38-3.7,8-5.67a3.31,3.31,0,0,1,4-.39c3.6,1.84,7.36,3.39,11,5.21a8,8,0,0,0,5.41.62c5.72-1.09,10.83-3.76,15.88-6.38,2.54-1.32,4.38-4,6.64-5.85,1.88-1.58,3.92-3,5.87-4.46a7.48,7.48,0,0,1,6.38-1.56c3.08.67,5.53-.28,7.82-2.36,2.11-1.91,4.49-3.53,6.92-5.4.49.79.93,1.41,1.28,2.08,9.34,17.56,16.9,35.93,24.15,54.4,3.35,8.53,5.94,17.38,8.43,26.22,2.84,10.06,5.36,20.23,7.67,30.43,1.34,6,2.06,12.06,3,18.11.8,5.48,1.41,11,2.2,16.45a4.68,4.68,0,0,1-.69,3.34c-7.72,12.82-16.86,24.6-26.48,36a360,360,0,0,1-29,30.45c-6.47,6.08-13.48,11.6-20.37,17.22-3.81,3.12-7.87,5.93-12.31,9.26a16.75,16.75,0,0,1,.65-2.29c3.15-6.49,6.23-13,9.51-19.42a95.73,95.73,0,0,0,6.68-17.39c1.94-6.74,3.59-13.55,5.52-20.29,3-10.62,6.21-21.22,9.39-31.81A11.44,11.44,0,0,0,1005.13,780.25Zm114.45-317c4,16,7.06,32.21,10,48.43a39.27,39.27,0,0,1,.74,5.61c-3.5-7.41-6.9-14.87-10.54-22.21s-7.49-14.81-11.5-22.07-8.26-14.2-12.4-21.29l.67-.44c2.28,3.25,5.32,5.92,6.8,9.8,1.35,3.52,1.41,3.5,5.18,3.51h1.48c4.77,0,4.77,0,6.3-4.28C1118.51,460.07,1119.12,461.37,1119.58,463.22ZM933.44,180.81l5.91,4.7-.55.57c-2.32-1.12-3.72-3.32-5.73-4.8Zm-5.05-3.4a48.29,48.29,0,0,1-5.31-3.12c-2-1.48-3.68-3.28-5.71-5.14C919.58,169.78,925.38,173.93,928.39,177.41Zm-42.17-29.62-60.11-23.24,10.67-5.44C847.92,123.54,880.24,142.3,886.22,147.79ZM823.6,113.14l7.26,3.18-4,2.11c-1.23-1.62-2.44-3.2-3.64-4.79ZM770.81,93.07c15.34,5.18,30.64,10.45,45.5,16.91.53.23,1,.52,1.82.93-1.36,3.34.79,5.56,2.55,7.93,1.17,1.58,2.32,3.17,3.5,4.78l-10.76-.69c0-1.48,1.14-2.41,1.72-3.57.45-.88,1.06-1.68,1.48-2.57.83-1.76.38-3.19-1.5-3.75-3.77-1.13-7.44-2.69-11.47-2.76-2.18,0-4.35-.23-6.52-.23a38.43,38.43,0,0,1-12.55-1.72c-2.91-1-5.66.16-8.37.94-1.57.45-1.92,1.9-1.15,3.7a68,68,0,0,0,3.27,7c1,1.82.77,3.19-.43,4.82-2.68,3.65-2.09,3.63-6.06,1.69-3.22-1.57-6.61-1.79-10-2.21a13.73,13.73,0,0,1-4-.86A316.17,316.17,0,0,0,727,111.27c-.44-.14-.84-.39-1.87-.87,6.63-2.87,12.55-5.56,18.58-8,7.68-3.11,15.45-6,23.17-9A5.42,5.42,0,0,1,770.81,93.07Zm-185.57-28c.92,0,1.79-.16,2.65-.15,15.22.09,30.44.1,45.66.37,4.72.08,9.43.87,14.15,1.39,7.85.86,15.73,1.57,23.55,2.69S687,72,694.89,73.47a584.72,584.72,0,0,1,62.92,15.67c.81.25,1.61.55,2.86,1-1.32.58-2.2,1-3.1,1.36l-35.31,14.61c-.55.22-1.1.45-1.62.72a4.3,4.3,0,0,1-5.43-.57c-4.37-4.1-10.06-4.17-15.47-5.09L675.21,97a1.37,1.37,0,0,1-1-.71c3.61-.34,7.23-1,10.84-.94a20.18,20.18,0,0,0,11.84-4c1.72-1.18,3.22-4.6,2.55-6.45a3.13,3.13,0,0,0-1.49-1.7A14.11,14.11,0,0,0,693.15,82c-8.8-.07-17.59,0-26.39.11a13.34,13.34,0,0,0-3.17.55c-1,.24-1.85.73-2.8,1a18.2,18.2,0,0,0-11.26,7.53,3.46,3.46,0,0,1-3.8,1.54c-18.2-2.87-36.58-3.32-55-4l-5.54-.24Zm-6.86,34.69c-1.09.46-2.28.65-3.38,1.09a6.47,6.47,0,0,0-2.52,1.41,4.44,4.44,0,0,1-3.94,1.52,44.6,44.6,0,0,0-5,0,28,28,0,0,1-13.6-2.18,3.76,3.76,0,0,0-4.59.78c-1.21,1.16-2.6,2.14-3.82,3.29-1.54,1.44-1.69,2.54-.34,4.11,3.22,3.75,6.56,7.39,9.84,11.09a3.7,3.7,0,0,0,3.2,1.15c3.07-.1,6.13-.15,9.19-.17a6.29,6.29,0,0,1,2.62.26c5.26,2.47,10.48,5,15.93,7.68v52.66c-12.24,1.42-24.52,2.72-36.49,7.38a185.29,185.29,0,0,0-38.65-37.34c3.27-.37,5.87-.67,8.48-.94s4.91-.51,7.38-.69a3.35,3.35,0,0,0,3.3-2.47,8.36,8.36,0,0,1,3-3.93c4.85-4.07,9.65-8.19,14.45-12.31,2.39-2.05,2.4-2.42,1.07-5.31-.88-1.92-1.87-3.68-3.93-4.61a2.48,2.48,0,0,1-1.32-1.1c-1-2.85-3.63-4.09-5.57-6A6.76,6.76,0,0,0,531,114c-2.42-.76-4.86-1.46-7.41-2.22,1.08-2.22,2.5-4.08,2.84-6.12s-.5-4-.88-6.43c8.92-1.47,18.09-2.54,27.25-3.64s18.28-1.65,27.15-2.42C582,95.94,581.23,98.6,578.38,99.79ZM697.22,223.55c2.28,3.23,4.46,6.53,6.82,9.7a6.06,6.06,0,0,0,2.57,1.84c2.74,1.13,5.51,2.19,8.34,3.07a3.05,3.05,0,0,1,2.48,3.19,23,23,0,0,1-.4,4.39,3.9,3.9,0,0,0,1.42,4.18c2.06,1.76,4.17,3.29,6.95,3.68a3.13,3.13,0,0,1,1.88,1.19c-7.35-.52-14.49-2.18-21.74-3.06s-14.72-1.59-22.35-2.4c-.37-1.59-.67-2.92-1.1-4.76,1.26.45,2.14.71,3,1.07,5.43,2.31,4.77,2.13,8.54-1.8a66.45,66.45,0,0,0,4.95-6.24c1.72-2.29,1-4.93.85-7.45,0-.56-.71-1.16-1.21-1.59s-1.37-.81-2-1.3c-2.55-2-4.38-2.28-8.13.85-2.79,2.33-5.69,4.53-8.72,6.92L667.53,214.9c2.91-1.72,30.61-8.7,37.83-9.42,1.11,1.62,1.23,3.62,1.59,5.51.22,1.21-.7,1.75-1.7,2.07-1.79.57-3.57,1.16-5.38,1.67a3.31,3.31,0,0,0-2.52,2.61c-.23,1-.44,1.93-.75,2.87A3.56,3.56,0,0,0,697.22,223.55Zm41.39,53.37c2.81.93,5.64,1.81,8.45,2.74.74.24,1.45.57,2.48,1-.43.8-.62,1.7-1.16,2a12.12,12.12,0,0,1-4,1.69,44.09,44.09,0,0,1-5,.1c-2.56.14-3.63,1.71-2.55,4,2,4.2,3.64,8.68,6.35,12.37s6,7.1,10.61,8.64c4.31,1.42,8.54,3.08,12.85,4.49a16.09,16.09,0,0,0,4.63.71c2.36.06,2.77-.39,3.32-2.83.13-.57.25-1.14.47-2.14.61.75,1,1.19,1.35,1.69,2.19,3.4,4.33,6.82,6.54,10.21,1,1.59,1.27,2.54,1.18,6.67-1.42-1.55-2.64-2.8-3.77-4.12a8.08,8.08,0,0,0-3.85-2.6c-5.65-1.77-11.28-3.61-16.9-5.48a17.5,17.5,0,0,1-3.74-1.69c-5.79-3.6-11.52-7.28-17.29-10.92-3.11-1.95-4.18-1.64-5.59,1.75-2.52,6-2.91,5,2,9.42,6.85,6.26,13.8,12.42,20.73,18.59a7.23,7.23,0,0,0,1.45.84c-3.66,4.56-8.41,5.11-12.44,5.7l-9.23-4.44a2.63,2.63,0,0,0-3,.55c-.76.63-1.5,1.27-2.18,1.85-3.22-1-4.72-3-4.28-6.28.35-2.63-.7-4.25-3.06-5.42a7.61,7.61,0,0,1-2.53-2.71c-2.48-3.79-3.55-8.08-4.21-12.51A11.94,11.94,0,0,0,714,305.1c-2.53-3.38-6.26-3.43-9.76-4.14-1.35-.27-2.16.8-2.52,2.05-.91,3.16-2.58,6.2-1.07,10.35L673,296.52c8.32-12.66,10.61-26.8,10.78-41.87,3.22.29,6.32.59,9.42.84,11,.9,21.9,3,32.82,4.71,2.06.32,3.77,1,4.94,2.79a8.29,8.29,0,0,0,1.55,1.79,8.78,8.78,0,0,1,3.07,7.87C735.39,275.59,735.88,276,738.61,276.92Zm7.58,112.42c.31,2.6-.31,5-1.08,7.94-1.46-2.17-2.65-3.95-3.86-5.72-1.76-2.58-2.62-2.76-5.34-1.07-1.84,1.15-3.69,2.3-5.49,3.52-2.89,2-2.74,6.9.26,8.66,1.69,1,3.42,1.93,5.18,2.92-.24,7.27-.49,14.37-.74,21.7-1.52.23-3,.42-4.4.66-2.05.35-2.73,1.11-2.6,3.2.11,1.66.4,3.31.61,4.94-3,.88-3.83.61-5.13-1.85a29.43,29.43,0,0,1-2-4.31c-1-2.95-3.09-3.64-6.49-2.53a24.88,24.88,0,0,0-4.27,2,4.83,4.83,0,0,1-4,.55,31.67,31.67,0,0,0-4.36-.84,2.65,2.65,0,0,1-2.53-2.45,4.8,4.8,0,0,1,3.82-2.39c6.75-.88,13.49-1.9,20.23-2.87a5.62,5.62,0,0,0,4.85-5.72,50.7,50.7,0,0,0-.89-7,4.2,4.2,0,0,0-1.6-2.32c-4.31-3.14-8.49-6.58-13.15-9.09-3.63-2-7.92-3.45-12.15-1.33a11.46,11.46,0,0,1-10.68.08,105.54,105.54,0,0,0-10.84-4,5.46,5.46,0,0,1-3.23-2.78c-4-7.17-7.9-14.37-12.1-21.42-7.88-13.24-15.94-26.38-23.92-39.56-.55-.91-1.07-1.83-1.74-3,12.72-5.37,22.65-14.06,31.2-24.62,1,.59,1.9,1,2.73,1.55,9.53,5.81,19,11.65,28.6,17.42a6.3,6.3,0,0,1,2.92,3.49c1.3,3.73,2.88,7.36,4.2,11.08.67,1.91,1.65,3.35,3.67,3.87,2.44.63,3.47,2.31,4.45,4.58,1.51,3.51,3.74,6.7,5.69,10a2.53,2.53,0,0,0,2.81,1.19c2.44-.39,4.88-.75,7.29-1.27a5.56,5.56,0,0,0,2-1.22,34.55,34.55,0,0,1,2.72-2.28,32.28,32.28,0,0,1,3.72-1.73c1.52-.69,2.34.67,3.41,1.23,3.42,1.77,6.82,3.59,10.22,5.4.69.37,1.34.8,2.34,1.39-4.12,2.73-4.79,7.22-6.41,11.19a20.45,20.45,0,0,1-1.24,3,22.86,22.86,0,0,0-3.32,11.24A52,52,0,0,0,746.19,389.34ZM635,431.05c.72,6.73-.81,13.14-2.43,19.56-2,8.08-5.53,15.63-8.51,23.36a11.76,11.76,0,0,1-3.23,4.16,16.92,16.92,0,0,0-5.39,10.22c-.57,3.28-1.55,6.5-2.41,10H597.77Q595.64,417,593.5,335c1.24-.07,2.39-.16,3.54-.19s2.35,0,3.67,0a33.39,33.39,0,0,1,3.4,9.35,5.35,5.35,0,0,0,3.35,4.48c2.44,1,3.83,2.86,4.91,5.21,1.4,3,2.6,6.17,5,8.65s2.7,2.65,5.87,1.29l1.31-.56c3.21,1.62,5.93.72,8.2-2,2.81-3.39,1.49-6.91.76-10.41-.14-.64-1.22-1.22-2-1.54a29.44,29.44,0,0,0-2.88-.66,4.88,4.88,0,0,1-3.61-3.56,54.48,54.48,0,0,1-1.13-6.7c-.21-2.15.29-2.76,2.35-3.45,1.22-.41,2.47-.69,3.71-1,3.15-.89,3.22-1,3.34-4.25,0-.39,0-.79.09-1.18,0-.07.1-.14.46-.63,12.91,20.38,25.41,40.7,36.88,62.27a32.19,32.19,0,0,1-3.94-.32,4.54,4.54,0,0,0-4.36,1.14c-6.85,6.27-13.83,12.41-20.56,18.81a57,57,0,0,0-6.53,8,5.78,5.78,0,0,0-.87,3.29C634.55,424.34,634.62,427.71,635,431.05Zm-33.26,158c-1.67,1-3.13,1.09-4.46.2-3.81-2.57-7.4-1.53-11.18.17A27.26,27.26,0,0,1,579.5,591c-4.18.74-8.38,1.38-12.59,2a6.69,6.69,0,0,1-3.61-.52c1.05-.69,2.15-1.3,3.13-2.06a37,37,0,0,0,4.05-3.42c1.5-1.55,1.72-2.68.32-4.16-2.69-2.86-2.31-5.43-.32-8.47,1-1.48,1.09-3.51,1.67-5.27.33-1,.52-2.31,1.25-2.82,3.84-2.72,3.74-6.71,3.66-10.66a51.81,51.81,0,0,0-.67-6.19c-.32-2.15-.95-2.71-3.07-2.82-1.14-.06-2.3,0-3.81,0,.42-3,.61-5.53,1.18-8s.2-4.46-1.92-6c-.4-.29-.68-.73-1.07-1-1.72-1.24-2.05-2.77-.94-4.84l2.42.62c2.82.77,3.77.15,4.2-2.73,0-.29.13-.57.15-.7l4.11-3.19c1.94,2.81,2.82,6,3.86,9.2a4.72,4.72,0,0,1-.32,2.29c-.88,3.65-1.86,7.27-2.67,10.93-.61,2.77.31,3.88,3.1,4,1.18,0,2.36,0,3.67,0,.78,1.83,1.6,3.51,2.2,5.26A4.94,4.94,0,0,0,591,556a3.73,3.73,0,0,1,3.15,4.28c0,.2.06.4.06.59a9.27,9.27,0,0,0,4.15,8,6.75,6.75,0,0,1,1.5,1.42c1.49,1.91,2.71,3.87,1.64,6.49-.52,1.27-.56,2.72-1,4A7.69,7.69,0,0,0,601.72,589.05ZM572.23,611c1.53,2.19,3.28,4.21,4.81,6.39q5,7.15,9.91,14.39a6.35,6.35,0,0,1,1.11,3c.28,5.33.42,10.67.59,16a8.75,8.75,0,0,1-.18,1.18c-.9.08-1.85.19-2.8.26-6.2.5-12.4,1.06-18.62,1.43a18.93,18.93,0,0,1-4.94-.6c-6.63-1.35-6.62-1.38-12.64,1.54-3.29,1.6-6.59,3.17-9.86,4.8-2.3,1.15-2.54,1.71-2.07,4.21s.92,5.27,1.58,7.85a4.82,4.82,0,0,1-.51,4c-2.67,4.37-3.18,9.11-3.24,14.17-.06,4.79-1.12,9.59-2,14.35-.72,4-.31,7.88,0,11.81.16,1.91,1.09,2.6,3,2.41s3.89-.68,5.85-.9a4.25,4.25,0,0,1,2.49.38c3.19,1.95,6.29,4,9.75,6.31-2.12,1.94-4,3.85-6,5.46a16.65,16.65,0,0,0-6.1,8.48,5.29,5.29,0,0,1-.25.54c-1.72,4.08-3.45,8-7,11.08-3.89,3.44-6.94,7.82-10.44,11.72a6.83,6.83,0,0,0-1.75,4.59,7.18,7.18,0,0,1-3.57,6.36c-2,1.25-3.65,3.44-5.76,4s-4.41-.61-6.63-1.09c-13.13-2.84-26.32-5.41-39.35-8.64-12.45-3.08-24.7-7-37.09-10.33-17.1-4.6-33.54-11.16-50.27-16.83a9.14,9.14,0,0,1-1.12-.64c.28-1.06.52-2,.78-2.93,9.11-32.64,19.41-64.92,30.31-97C416.48,620.3,423.16,602.12,430,584c12.07-31.86,24.43-63.62,36.67-95.42.25-.63.58-1.23,1-2.09a416.67,416.67,0,0,0,62.06,12.84c21,2.74,42.06,3.92,63.52,4.55.39,16,.77,31.76,1.15,47.47-1.61.35-2-.58-2.41-1.5-.65-1.55-1.39-3.07-1.88-4.67-.72-2.31-2.06-3.53-4.56-3.26a8.07,8.07,0,0,1-1.52-.18c.74-2.83,1.35-5.58,2.18-8.25a8.58,8.58,0,0,0-.27-6.58c-1.84-3.93-3.43-8-5.31-11.89-1.43-3-3.35-3.14-5.32-.5-1.59,2.14-3,4.42-5.72,5.36-.6.2-1,.87-1.76,1.52-.66-.19-1.58-.51-2.53-.7a2.39,2.39,0,0,0-3.17,1.86,55.62,55.62,0,0,0-1.37,7.57A3.54,3.54,0,0,0,561.9,533c3.92,2.58,4.08,6.08,2.91,10.06a9.05,9.05,0,0,0,.27,5.81c.87,2.4,1.19,2.7,3.83,2.84.78,0,1.55.1,2.56.16.19,1.32.48,2.56.54,3.82.12,2.7,0,5.34-2.55,7.15a5.73,5.73,0,0,0-2.3,4.59,10.25,10.25,0,0,1-1.5,5.34c-2.67,3.84-3.18,7.78,0,11.8L564,585.86c-3.17,2.51-6.38,5-9.47,7.58a12.05,12.05,0,0,0-2.3,3,2.47,2.47,0,0,0,.32,3.26,2.23,2.23,0,0,0,3,.4c3.16-2.17,6.72-1.71,10.25-2,4.52-.34,9-1.26,13.48-2,3.8-.6,7.6-1.11,11.09-3,1.75-.93,2-.7,5.92,1.38v5.68c-.81.27-1.7.61-2.62.86Q584.82,603.59,576,606c-.77.21-1.54.37-2.29.64C571.44,607.4,570.85,609,572.23,611ZM452,838.27a4.17,4.17,0,0,0,2.93,3c1.88.56,3.72,1.24,5.56,1.86a24.64,24.64,0,0,1-.61,9.31c-2.63,9.32-5.27,18.63-7.78,28a40,40,0,0,0-.88,6.39c-.11,1.18.08,2.38,0,3.56-.43,7.11,1.12,13.94,3,20.72a9.22,9.22,0,0,0,1.59,3.12c5.34,6.87,10.74,13.68,16.12,20.51.92,1.16,1.83,2.33,2.81,3.44a18.26,18.26,0,0,1,4.23,7.05,4,4,0,0,0,2.75,2.86l.56.2c12.14,4.36,23.31,10.71,34.49,17a13.28,13.28,0,0,1,2.62,1.9c3.09,2.91,6.18,5.82,9.17,8.84,2.34,2.36,5.27,1.92,8.07,1.79.75,0,1.67-1.06,2.13-1.86,2.33-4,6.15-5.39,10.35-6,8.5-1.19,17-2.23,25.55-3.36a8,8,0,0,1,4.6.67c1.88.89,3.84,1.6,5.72,2.46,1.43.66,2.81.63,3.79-.57,4.87-6,12-5.6,19.15-7.07.22,14.43.44,28.43.66,42.6-1.19.1-2.06.21-2.93.23-20.86.4-41.69.08-62.51-1.38-15.19-1.06-30.23-3.3-45.31-5.31-7.24-1-14.54-1.71-21.68-3.21-18.06-3.8-36.14-7.6-54.05-12.08a434.65,434.65,0,0,1-51.86-16.65c-6-2.32-11.95-4.67-18-6.92a2.94,2.94,0,0,1-2.18-3.29c.19-14.14.17-28.27.42-42.4.11-5.92.69-11.84,1.12-17.75.68-9.36,1.25-18.74,2.2-28.08.77-7.56,1.91-15.09,3.1-22.6,2.28-14.34,4.32-28.73,7.17-43,3.72-18.59,7.95-37.08,13.16-55.32.26-.93.58-1.84,1-3.15,21.59,7.83,43.2,14.95,65.11,21.22s44.22,10.71,66.36,16.37c-1.13.29-2.29.51-3.4.87-1.87.6-3.74,1.2-5.55,2a25.09,25.09,0,0,0-12,10.54,9.82,9.82,0,0,1-3.65,3.29,27.26,27.26,0,0,0-7.85,6.61Q465.24,819,453,833.13A4.73,4.73,0,0,0,452,838.27Zm-106.9,118c-1.5-.58-2.58-1-3.64-1.41-32.61-13.1-63.67-29.32-94.21-46.6a34.91,34.91,0,0,0-3.1-1.73,6.07,6.07,0,0,1-4-5,4.94,4.94,0,0,0-1.71-2.62c-5.84-5-11.8-9.93-17.62-15a6.58,6.58,0,0,0-5.25-1.43c-2.57.24-4.14-.68-4.84-3.14a1.05,1.05,0,0,0-.13-.26c-2.3-4.81-4.23-9.83-8.51-13.61,1.46-2.08,2.76-4,4.18-5.91a4.34,4.34,0,0,0,.7-4.4c-2.4-7.53-4.64-15.1-7-22.65a28.19,28.19,0,0,0-1.36-3.27c-4-8.88-9.55-16.79-15.56-24.42-2.6-3.31-5.33-6.32-9-8.43-1.11-.64-2.07-1.57-3.21-2.12-3-1.47-4.22-3.9-4.87-7.16-2.33-11.81-4.93-23.58-7.54-35.34a8.7,8.7,0,0,1,.52-6.27,58.33,58.33,0,0,0,2.33-5.45c1-2.49.67-3.31-1.62-4.54-3-1.59-3-1.8-2.07-5.11A605.43,605.43,0,0,1,180.4,664c6.63-16.28,13.72-32.39,21.89-48,.18-.34.42-.66.77-1.21.72.78,1.39,1.47,2,2.21,3.87,4.62,7.82,9.18,11.58,13.89,5.49,6.9,11.78,13,17.77,19.48,10.21,11,22.19,19.9,33.58,29.53,16,13.52,33.69,24.52,51.21,35.8,5.87,3.78,12.39,6.57,18.51,10a262.82,262.82,0,0,0,31.94,14.84c1.09.43,2.15.93,3.61,1.57a826.93,826.93,0,0,0-22,105.76C346.23,883.71,344.86,919.68,345.08,956.24ZM111.67,653.89c-2.93-4.8-5.67-9.73-8.27-14.72a5.83,5.83,0,0,0-5-3.46c-2.06-.21-4.1-.6-6.42-.94-1.06-3-2.5-5.86-2.59-9.2-.11-3.75-.37-7.5-.41-11.26a3.77,3.77,0,0,0-2.33-3.72c-2.74-1.37-5.4-2.88-8.36-4.48.23-3.25.44-6.58.7-9.9.41-5.22,1-10.44,1.21-15.66a53.41,53.41,0,0,0-.46-8,5.2,5.2,0,0,1,.93-3.91c4.69-6.17,7.12-13.29,9.16-20.68,1.49-5.39,2.6-10.69,2.11-16.31-.29-3.34-.23-6.71-.2-10.07a4,4,0,0,0-2.47-4c-1.58-.76-3.09-1.69-4.68-2.58,1.18-3.59,2.52-6.71,5.27-9.27,5.86-5.45,11.4-11.24,17.2-16.76a4.55,4.55,0,0,0,1.32-5.51c-1.29-3.52-2.31-7.14-3.51-10.7a3.32,3.32,0,0,1,.4-3.29,225.56,225.56,0,0,1,23.25-28.79,10.16,10.16,0,0,1,.84-.72,4.46,4.46,0,0,1,3.71,4.34c.47,4.22,1.27,8.4,1.92,12.6a12,12,0,0,1-2.46,8.88,62.37,62.37,0,0,1-5.13,6.13,25.81,25.81,0,0,0-6,11.42,70.52,70.52,0,0,1-6,16.06c-1.83,3.49-1.07,7.16-1,10.76,0,.82,1.21,1.66,1.95,2.4,2.17,2.19,4.31,2,7.18.79a11,11,0,0,0,6.88-8.51C132,497,136.38,490.53,140.6,484c.21-.33.39-.67.89-1.54.54,1.62.9,2.5,1.13,3.41,3.75,15.06,8.56,29.81,13.53,44.49,2,6,4.48,11.82,7.06,17.58a346.17,346.17,0,0,0,22.35,42.45c3.61,5.77,7.69,11.25,11.56,16.85.73,1,1.48,2.07,2.25,3.15-19.08,37.76-34.81,76.68-46.25,117.31l-.62,0a60.17,60.17,0,0,1-3.69-6.89A13.17,13.17,0,0,0,138.64,712a72.33,72.33,0,0,1-7-2.43,3.07,3.07,0,0,1-2.24-2.44c-.54-2.31-1.32-4.56-1.85-6.86a5.82,5.82,0,0,0-2.48-3.88,7,7,0,0,1-3-4.87c-1.27-5.89-2.75-11.73-4-17.62a12,12,0,0,0-2.4-5.33,6.23,6.23,0,0,1-1.51-4.93C114.64,660.08,113.54,657,111.67,653.89ZM92.61,460.09c-.3-10.44,2.09-20.38,5.84-30a38.63,38.63,0,0,1,5.84-10.54,54.59,54.59,0,0,0,9-15.48,29.79,29.79,0,0,1,1.59-3.5,4.9,4.9,0,0,1,5.95-2.62c1.44.34,2.86.77,4.26,1.24,2,.64,3.24,2.26,2.76,4.26-1.41,5.73-.32,11.38.08,17.07a18.91,18.91,0,0,1-.06,3.53c-.35,3.13-.72,6.26-1.23,9.36a9.92,9.92,0,0,1-1.19,2.89,6.65,6.65,0,0,1-1.16,1.34A206.31,206.31,0,0,0,101.56,466a5.85,5.85,0,0,1-4.81,2.85c-1.32.1-2.65.27-4.29.45,0-1.37,0-2.33,0-3.29C92.51,464,92.67,462.06,92.61,460.09Zm147.76,30.54c.32.83.73,1.62,1.11,2.43,1.82,3.86,5.1,4.7,8.62,2.21a4.68,4.68,0,0,0,.71-.53c3.31-3.54,7.71-4.09,12.18-4.44a6.17,6.17,0,0,1,1.77,0c4.51.88,9,1.81,13.38,2.69-13.35,17.93-27.22,35.78-40.22,54.23a607.48,607.48,0,0,0-36,58c-3.78-5.36-7.43-10-10.55-15.06a385.25,385.25,0,0,1-24.35-46.08,205.71,205.71,0,0,1-9.22-25c-3.63-12.1-7.19-24.23-10.77-36.35-.25-.82-.39-1.68-.65-2.8,1.19-.06,2.14-.15,3.09-.16,2,0,4.18.54,5.88-.14,5.16-2.08,10.49-.48,15.7-1.2a23.28,23.28,0,0,0,8.46-3.29c1-.56,1.55-2,2-3.16a3.58,3.58,0,0,1,3.09-2.34c2.44-.37,4.85-.93,7.29-1.3,3.65-.56,7,1,10.41,1.82.57.13,1,.87,1.48,1.39a29.84,29.84,0,0,1,3,3.64c2.55,4.11,6.59,6.1,10.81,7.87,2.28,1,3.42.45,4.25-2a41,41,0,0,0,1.4-4.83c.34-1.64,1.42-2,2.81-2a9.49,9.49,0,0,1,2,.39,53.54,53.54,0,0,0,11.72,1.43c4.62.09,9,1.66,14.16,2.63a20.12,20.12,0,0,1-1.87,1.62c-2.25,1.39-4.66,2.51-6.48,4.6-.75.86-2.27,1.06-3.45,1.54C240.05,487.4,239.54,488.46,240.37,490.63ZM279,454.88c-1-2.12-1.89-4.26-2.83-6.39l.47-.28c1.39,2,2.83,3.87,4.1,5.89.28.44,0,1.31-.15,1.92-1.05,3.49,1.26,7.3,4.91,7.38a6.76,6.76,0,0,1,5.83,3.27c1.48,2.09,3.18,4,4.91,6.16l-15.82,18.23a33.5,33.5,0,0,1-.09-3.69A4.08,4.08,0,0,0,278,483c-.95-.51-1.81-1.18-2.86-1.88.08-1.46.11-2.93.28-4.38a3.25,3.25,0,0,0-2.2-3.74c-1.27-.53-2.52-1.14-3.74-1.79-1.61-.87-1.93-2-1.22-3.68a5.14,5.14,0,0,1,3.25-2.82c3-1.08,5.07-3.27,7-5.75A3.63,3.63,0,0,0,279,454.88ZM355.45,391c-1.37-1-2.65-2-4.55-1-3.19,1.57-6.46,3-9.71,4.43-.53.24-1.09.43-1.84.71-.19-.84-.34-1.57-.53-2.29-.41-1.56.14-2.51,1.53-3.4,3.08-2,6-4.1,8.95-6.32a5.72,5.72,0,0,0,1.69-2.65c1.76-5.36,3.33-10.76,2.77-16.52a3.74,3.74,0,0,1,.53-2.52c1.91-2.26,1.26-4.87,1.3-7.39a2.78,2.78,0,0,0-2-2.69c-3.46-1.25-4.43-4-5.08-7.29a6.86,6.86,0,0,0-9.73-4.82c-7.55,3.43-15.07,6.95-22.67,10.27a43.5,43.5,0,0,1-7.61,2.34,4.34,4.34,0,0,0-3.3,2.6c-.89,2-2,3.88-2.84,5.87a5.77,5.77,0,0,1-2.82,2.84,41,41,0,0,1-16.06,4.76c-2.67.26-4.23,1.47-4.86,3.93-1.23,4.75-5,6.83-9.34,9-.06-3.27-.7-6.23.65-9.11a27.42,27.42,0,0,1,2.82-5.5c2-2.49,4.38-4.55,7.87-4.7,2.22-.1,3.34-1.38,4.26-3.44,1.38-3.1,1.17-6.16.67-9.27a5.35,5.35,0,0,1,1-4.43,80.5,80.5,0,0,1,5.24-6.75c3.54-3.71,7.29-7.23,11-10.74a4.06,4.06,0,0,0,1.37-3.39c-.07-2.65,0-5.32,0-8.11a12.14,12.14,0,0,1,1.14-.7c10.55-4.72,21.06-9.53,31.67-14.09a105.79,105.79,0,0,1,11-3.5,2.21,2.21,0,0,1,1.67.07c2.47,2,5.52,2.08,8.39,2.6a7.24,7.24,0,0,1,5.58,3.71c2.3,4,5.08,7.77,7.5,11.73a11.93,11.93,0,0,0,4.8,4.27,4.19,4.19,0,0,0,3.06.15c4.17-1.54,8.27-3.26,12.39-4.91a1,1,0,0,0,.27-.12c3.6-3.51,7.42-6.83,10.67-10.64,1.38-1.61,1.46-4.26.31-6.5-.54-1.05-1.05-2.12-1.64-3.15-1.22-2.12-2.06-2.42-4.38-1.44-2.09.88-4.14,1.87-6.21,2.79a7.36,7.36,0,0,1-1,.32l-.33-.58c2.89-1.33,3.84-3.78,4.34-6.62a5.86,5.86,0,0,1,1.64-2.71c1.92-2,3.94-3.88,6-5.78,2.18-2.05,5.09-2.3,8.13-2.85-1.47,2.26-2.82,4.62-4.44,6.77a5.23,5.23,0,0,0-.5,6.26c1.65,3.14,2.9,6.49,4.42,9.7s1.59,6.86,2.39,10.34a13.26,13.26,0,0,1-2,1.13,12.79,12.79,0,0,0-7.74,7.63,10,10,0,0,1-3.95,4.24c-3.91,2.68-7.76,5.46-11.43,8.45a6.33,6.33,0,0,1-6.47,1.36c-.55-1.74-1.25-3.59-1.7-5.49a5.17,5.17,0,0,0-3.22-3.93c-.81-.34-1.55-.87-2.34-1.27-2.41-1.21-3.42-.84-4.66,1.68a25.17,25.17,0,0,0-1.21,2.71,4.77,4.77,0,0,1-3.19,3.22c-2.39.74-3.57,2.44-4.39,4.76-2,5.62-2.06,5.58,3.06,8.47.93.52,1.83,1.1,2.78,1.67-.71,3.13-1.47,6-3.3,8.62a9.7,9.7,0,0,0-1.44,3.79c-.82,4.57-1.52,9.16-2.22,13.75a9.81,9.81,0,0,0-.17,2.95c.74,4.78,1.52,9.56,2.42,14.31.41,2.14,1.67,2.86,3.68,2.09,2.5-.95,5.48-1.22,6.7-4.14.24.06.39.05.42.11,1.68,3.5,5.06,4.07,8.32,4.83,2.42.57,3.09.29,4.2-2,2.52-5.26,5.06-10.51,7.43-15.83a4,4,0,0,1,3.27-2.49c5.93-1.07,11.84-2.23,17.76-3.35.34-.06.69-.07,1.31-.13L357.26,415.1l-9.11-9.47c1.87-1.11,3.35-2.07,4.9-2.89a4.35,4.35,0,0,0,2.4-3.17c.35-1.65.71-3.29,1.17-4.9A3.09,3.09,0,0,0,355.45,391Zm-44.23-93.08a4.62,4.62,0,0,1,0-1.23l4.22-1.67c3.39-1.34,6.77-2.73,10.19-4a4.44,4.44,0,0,1,2.8-.28c4.34,1.68,8.86,1.81,13.41,1.8.38,0,.77.07,1.59.15-.54.4-.76.66-1,.74-11,3.3-21.3,8.33-31.7,13.09a26.41,26.41,0,0,1-2.93,1,1,1,0,0,1,.26-.38C311,304.71,312.91,302,311.22,297.93Zm-7,11.19c.93-1.28.95-1.31,3.32-1.53A5.46,5.46,0,0,1,304.23,309.12Zm112.52-50.89c-3.7-.61-7.41-1.18-11.13-1.68a24.3,24.3,0,0,1-7.93-2.2,9,9,0,0,0-4-.76c-2.46,0-4.92.34-7.39.52-1,.07-2,.11-2.06-1.71l6.48-2.38c3.27-1.19,3.31-1.44,3.5-4.92.17-2.91-.88-5.44-2.05-7.92a4.86,4.86,0,0,0-2.47-1.87c-1.5-.65-3.12-1-5.24-1.72a27.39,27.39,0,0,1,2.88-1.67,3.33,3.33,0,0,0,2.1-4.06,42.46,42.46,0,0,1-.64-5c-.11-2.43,0-4.87,0-7.55h3.79a54.88,54.88,0,0,1,.05,5.74,9.18,9.18,0,0,0,2.47,7.59,8.28,8.28,0,0,1,2.36,7.82,41.65,41.65,0,0,0-.31,5.61,2.93,2.93,0,0,0,1.73,3.14c2.31,1.12,4.6,2.27,6.91,3.39a3,3,0,0,0,4-.91,42.89,42.89,0,0,1,3.37-3.75c2.74-2.55,5.74-4.54,10.33-3.12-1.2.82-2.13,1.43-3,2.08-1.88,1.36-2.13,2.15-1.19,4.26s1.93,3.9,2.8,5.89a3.34,3.34,0,0,0,3.78,2.15c1.67-.17,3.35-.23,5-.36a21,21,0,0,1,9.62,1,22.65,22.65,0,0,0,3.7,1.06,2.53,2.53,0,0,0,3.37-2,24.63,24.63,0,0,0,1-4.63,5,5,0,0,0-.68-2.74c-.94-1.62-2.12-3.1-3.17-4.65-1.43-2.14-1.11-3.83,1-5.24,4.05-2.76,4.1-3.61.4-6.71-.89-.74-1.78-1.5-2.88-2.43,3.49-4.22,8-2.84,12.51-3.09a44.59,44.59,0,0,0-1.15,4.78,12.52,12.52,0,0,0,.06,4.32c.55,2.3,1.59,2.82,4,2.3,2-.44,4-1.06,6-1.51a27.35,27.35,0,0,1,3-.35c.09.2.17.4.25.6a8.18,8.18,0,0,1-1.25,1.37c-1.69,1.19-3.45,2.29-5.17,3.45-2.86,1.93-3,2.68-1.25,5.5,1.69,2.67,3.43,5.31,5.15,8,.75,1.16,1.45,2.33.67,4.16-1.7-1.14-3.3-2.23-4.92-3.29-2.46-1.62-2.91-1.59-5.18.33-.68.58-1.34,1.17-2,1.75-3.5,3.05-3.5,3.05-7.64,4.09a51,51,0,0,0-4.88-1.57c-2.71-.58-5.44-1-8.17-1.45-3.57-.59-4.76.81-3.75,4.37.22.75.42,1.5.73,2.62l-14.06,4.32-.46-.51,2-3.39c.45-.77.94-1.51,1.38-2.28C420.52,260.25,419.85,258.74,416.75,258.23Zm67.57-14.4a15.87,15.87,0,0,1,0-2.67,3.68,3.68,0,0,0-1.75-3.51,14.33,14.33,0,0,1-1.66-1.24c-1.24-1.14-1.16-2.16.22-3.06a.84.84,0,0,1,.27-.13c4-1.17,5-3.94,4.24-7.74a14.92,14.92,0,0,1,0-2.68c2-1.3,3.54-1.16,5.05.25a12.77,12.77,0,0,0,2.39,1.73c1.57.89,3.2,1.69,4.94,2.59-2.95,6.56-5.76,13.47-6,21.43l-11.44,1.48c-.07-.19-.14-.39-.22-.59.26-.22.48-.57.78-.66C483.72,248.24,484.62,246.44,484.32,243.83Zm-49.64-36.54c.31.59.54,1.22,1,2.25-1.67.48-3.11,1-4.58,1.32-3.06.77-3.07.75-5,3.22l-5.77-6.66a5.81,5.81,0,0,0,4.3-3.49,13.26,13.26,0,0,1,4.93-5c4-2.61,8-5.1,12.56-6.54a3.57,3.57,0,0,0,2.73-3.42c.35-3.44.87-6.86,1.39-10.27a3.57,3.57,0,0,0-1-3.24c-.61-.63-1.17-1.3-1.92-2.14l2-1.28c9.35-5.79,19.89-8.65,30.16-12.1,6.82-2.3,13.81-4.1,20.69-6.23a4.65,4.65,0,0,1,4.39.69c10.49,6.85,19.6,15.34,28.53,24,4.07,4,7.43,8.66,11.31,13.25C526,198,513.16,206.16,503.41,219c-2.21-2.92-4.39-5.45-6.18-8.24-2.09-3.26-4-4-8.68-2.82a14.44,14.44,0,0,0-4.88,2c-1.4,1-2.35,2.62-3.81,4.32-1.63-2.19-3-3.73-4-5.44-2.28-3.64-5.75-5.67-9.57-7.07-6.67-2.45-13.45-4.6-20.14-7a3.41,3.41,0,0,0-3.81.67c-2.32,2.13-4.74,4.18-6.92,6.44S433.25,204.51,434.68,207.29Zm64.07,14.08c-1.06-.13-1.64,0-2-.28-1.72-1.15-3.43-2.32-5-3.62a4.24,4.24,0,0,0-4.65-.75,26.4,26.4,0,0,1-3.44.86,9.44,9.44,0,0,1,6.73-4.9,2.3,2.3,0,0,1,2.58.92C494.72,216.06,496.57,218.47,498.75,221.37ZM496.87,253a20.4,20.4,0,0,1,3.2,1.68q4,3.26,7.9,6.7a9.78,9.78,0,0,0,4.64,2.43c2,.4,4,1.18,6,1.52a14,14,0,0,1,9.53,6.38c.94,1.37,2,2.69,3.05,4.19-1.62,2.12-3.89,3.17-6,4.38-.55.32-1.54,0-2.29-.15-2.69-.6-5.4-1.18-8.05-1.93a6,6,0,0,0-4.29.33c-2.86,1.27-5.76,2.45-8.78,3.72C497.25,273.12,496.56,263.6,496.87,253Zm56.44,65.74c4,1.86,8.16,3.52,12.19,5.38a29.35,29.35,0,0,1,3.62,2.29l-.24.61c-22.77-1.26-47.18-15.44-59.52-32.83a19.41,19.41,0,0,1,7.57.24,4.33,4.33,0,0,1,1.11.4c5.25,2.86,10.45,2.67,15.78.08,2.29-1.11,4.86-1.62,7.25-2.56a5.45,5.45,0,0,1,5.09.38c4.13,2.51,8.23,5.08,12.53,7.75-.19.88-.3,1.74-.56,2.56-.64,2-1.16,2.33-3.21,2.26-1.38-.06-2.76-.2-4.14-.26-3-.12-3.61.49-3.69,3.57a2.8,2.8,0,0,1,0,.29C547,315.48,547.27,316,553.31,318.76Zm-54.76,99.87a38.85,38.85,0,0,1,4.7-.59,22.42,22.42,0,0,0,8.79-2.32c5.59-2.5,11.25-4.83,16.85-7.3a9.57,9.57,0,0,0,2.93-1.91C534,404.33,536,402,538,399.75a3.8,3.8,0,0,0,1-3.53c-.53-3-.85-6.07-1.51-9.05a9.64,9.64,0,0,1,.71-6.88c.76-1.47,1.29-3.05,2-4.82,1.62,1.08,3,2,4.39,2.92,2.07,1.29,3,1,4.46-.94a14.28,14.28,0,0,0,3.29-9.26c-.07-2.46.22-4.93.28-7.4,0-1.29.27-2.33,1.71-2.72,1.79-.47,2.43-1.73,2.55-3.52.36-5.42.81-10.83,1.26-16.25.11-1.23-.12-2.6,1.26-3.42,2-1.18,3.65-3.14,6.33-2.78l22,3c.76,2.67,5.12,158.75,4.49,163.51-15.56-.07-31.09-1.23-46.6-2.65a416.11,416.11,0,0,1-76.12-14.26C479.27,460.63,488.85,439.75,498.55,418.63Zm-33.83,61.49c-3.66-1.51-7-2.88-10.38-4.27-7.66-3.18-15.38-6.19-22.93-9.61-4.64-2.1-9-4.83-13.7-7.38,6.92-8.51,13.84-16.23,22.31-22.33A15.19,15.19,0,0,1,452.61,434c2.59.59,5.19,1.2,7.74,2a5.23,5.23,0,0,0,5-.92c4.62-3.38,9.47-6.45,13.94-10,3.66-2.91,8-3.64,12.86-5.22C483.4,440.52,473.61,460,464.72,480.12ZM526.45,317.2c9.21,6.09,18.83,11.14,30.07,12.89-3.14,3.52-3.1,3.52-3.44,8.57s-.76,9.84-1.15,14.76a13.29,13.29,0,0,1-1.71.84c-1.78.56-2.39,1.77-2.44,3.58-.11,3.75-.32,7.51-.6,11.25a30.47,30.47,0,0,1-.93,4.1c-1.35-.88-2.23-1.43-3.09-2-3.07-2.06-5.7-1.61-7.32,1.64a88,88,0,0,0-3.86,9.61,6.31,6.31,0,0,0,.09,2.92c.48,3.12,1,6.24,1.57,9.35a3.39,3.39,0,0,1-1,3.47,6.06,6.06,0,0,0-.8.88,18,18,0,0,1-8.43,6.2,101.13,101.13,0,0,0-10.6,4.58,31,31,0,0,1-13.05,3.42c-5,.1-9.63,1.94-14.4,3.19a25.79,25.79,0,0,0-9.18,4.57c-3.77,2.87-7.77,5.44-11.54,8.31-1.83,1.39-3.59,1.89-5.71,1-.45-.2-1-.24-1.43-.41a22.23,22.23,0,0,0-15-.22,16.55,16.55,0,0,0-5,2.34,108.43,108.43,0,0,0-20.13,19.56c-2.4,3.09-5.9,3.34-9,4.58-1.18.47-2.91-.8-3.5-2.09a29.56,29.56,0,0,1-2.61-11.45,71.23,71.23,0,0,1,2.48-20.51,23.73,23.73,0,0,1,1.14-3.36c2.55-6,5.17-12,7.69-18a14.87,14.87,0,0,1,3.52-5.4,20.69,20.69,0,0,0,5.3-8.09c.88-2.29,2-4.48,3.16-7.06,2,.8,3.8,1.43,5.52,2.28a5.84,5.84,0,0,0,4.79.08,23.55,23.55,0,0,0,12.79-9.46,53.5,53.5,0,0,1,5.72-6.8,8.47,8.47,0,0,0,2.15-5.08,4.86,4.86,0,0,0-1-2.89,37.25,37.25,0,0,0-3-3.5c.26-.25.32-.36.39-.37,4.86-.29,7.75-3.94,11.22-6.59a1.2,1.2,0,0,0,.41-.43c1.7-4,3.78-7.88,4-12.27.25-4.62,0-9.28.1-13.91a9.76,9.76,0,0,0-1.51-6.18c-.22-.32-.38-.69-.57-1-2.23-4.06-2.23-4.06-1.16-9.28,1.93-.55,3.82-1.08,5.71-1.63,3.07-.9,3.25-1.13,3.48-4.24a29.29,29.29,0,0,1,.3-3.25c.33-1.74,1.64-2.38,3.28-1.59s3,1.53,4.45,2.36a15.4,15.4,0,0,0,15.78.14c1.38-.75,2.81-1.41,4.49-2.26A87.72,87.72,0,0,0,526.45,317.2ZM397.14,446.63c-5.34-1.48-29-19.78-35.62-27.51,5.26-7.72,88.94-75.62,101.25-82-1.31,3.33-1.54,6.49-4.37,8.79-2.55,2.07-5.14,3.57-8.45,3.66-1.6,0-2.89.58-3.4,2.28s-1.08,3.58.66,5.19c1.42,1.33,2.66,2.87,4,4.37a15.18,15.18,0,0,1-1,1.63q-4.43,5.37-8.9,10.71c-2,2.41-5,3.19-7.8,3.85-1.35.31-3.15-.91-4.63-1.65a6.37,6.37,0,0,0-5.41-.22,4.61,4.61,0,0,0-2.94,2.66c-.94,2.28-2.07,4.49-2.95,6.79a16.74,16.74,0,0,1-4.32,6.62,19.2,19.2,0,0,0-4.61,7.13c-2.31,5.67-4.85,11.24-7.18,16.9a58.82,58.82,0,0,0-4.3,20.15C397,439.51,397.14,443.06,397.14,446.63Zm101.92-157.2c.07.21.13.43.19.65-3.13,1.95-6.26,4-10.28,3.21a13.14,13.14,0,0,1-3.34-1c-2.4-1.16-4.74-2.45-7.07-3.74a3.38,3.38,0,0,0-3.88.11,8.79,8.79,0,0,1-1.52.92c-2.71,1.14-3.8,3.1-3.67,6.06.11,2.56-.08,2.58-2.7,3.34-1.33.38-2.65.77-4,1.1a3.31,3.31,0,0,0-2.68,3.12c-.25,2-.52,3.92-.93,5.85a4.23,4.23,0,0,0,.62,3.67c3.42,4.43,3.85,9.47,3.34,14.83a5,5,0,0,1-2.17,4.15c-15.33,10.82-30.5,21.87-45,33.79-.35.29-.77.51-1.6,1v-7.07c0-3.06.08-6.12,0-9.18a3.41,3.41,0,0,1,1.91-3.6c6.87-3.67,12.39-9.07,18-14.32a4.58,4.58,0,0,0,1.79-4.14c-1.05-7.62,2.9-13.89,5.22-20.47a3.23,3.23,0,0,1,.78-.27c5.72.06,5-1,6.46-5.09.44-1.21.87-2.42,1.24-3.65.87-2.83.33-3.76-2.5-4.46l-1.93-.48a20.18,20.18,0,0,1,.14-2.58,20.42,20.42,0,0,0-1.3-11.87,19.35,19.35,0,0,1-1.86-10.06c.08-.63.3-1.24.62-2.52.63,1.29,1,1.94,1.28,2.64,1.08,2.86,2.28,5.69,3.15,8.62a18.24,18.24,0,0,0,4.52,7.17,4.29,4.29,0,0,0,4.48,1.41c5.12-1.09,10.24-2.17,15.39-3.09a16.11,16.11,0,0,1,4.95,0c2.24.31,4.43,1,6.67,1.37a13.22,13.22,0,0,1,7.62,3.49c1.85,1.78,4.33,1.63,6.72,1.31C498.17,289.66,498.61,289.53,499.06,289.43ZM416.7,275.26a4.67,4.67,0,0,1,2.36-1.55c4.21-1.4,8.47-2.67,12.71-4,4.47-1.39,4.47-1.39,3.87-6.09l2.64.35a23.07,23.07,0,0,0,.58,15.75c.42,1.1.68,2.27,1.15,3.36a9.1,9.1,0,0,1,.24,6.47c-1,0-1.93,0-2.9,0-2.14.06-3.1,1.09-2.76,3.23a42.64,42.64,0,0,0,1.3,5.47c.57,1.9,1.76,2.47,3.66,1.87,1.37-.43,2.69-1,4.72-1.73l-1,3.7a14.74,14.74,0,0,1-2.2.12c-2.41-.29-3.56.92-4.33,3.08-1.56,4.37-3.49,8.61-4.92,13a19.15,19.15,0,0,0-.72,6.67,6.8,6.8,0,0,1-2.4,5.64A81.35,81.35,0,0,1,412,343.34a4.94,4.94,0,0,0-2.78,5c.18,3.84.05,7.7,0,11.56,0,1-.08,1.93-.13,3.09l-13.36,2.57c-.32-2.43-.51-4.68-.92-6.89-.58-3.14-1.72-3.71-4.82-2.59a7.22,7.22,0,0,1-1.38.52c-3.88.57-4.94,3.54-5.57,6.73a5.26,5.26,0,0,0,.62,3,46,46,0,0,0,2.65,4.32l-7.08,15a3.51,3.51,0,0,1-4.06-1.82,48.93,48.93,0,0,0-3-4.4c-1.58-2-3.42-1.84-4.68.39-.44.77-.75,1.61-1.15,2.4s-.83,1.51-1.21,2.21c-.39-.11-.72-.13-.73-.21-1.07-5.29-2.61-10.54-1.17-16a42.86,42.86,0,0,0,.85-5.56,24.07,24.07,0,0,1,2.94-8.87c1.59-2.86,2.19-6.3,3.09-9.52.4-1.45-.53-2.39-1.77-3.07-1.71-.94-3.4-1.94-5.12-2.93.23-1.58.54-3,2.08-3.45A8.51,8.51,0,0,0,371,329c.08-.25.36-.43.75-.86a7.77,7.77,0,0,1,1.13,1.63c.66,2,1.27,3.95,1.8,6a3.41,3.41,0,0,0,3.28,2.82c6.62.79,6.57.79,11.86-3.24,3.92-3,8-5.76,12-8.72a20.46,20.46,0,0,0,2.82-2.91,4.41,4.41,0,0,0,.74-1.28,11.19,11.19,0,0,1,7-6.73,8.81,8.81,0,0,0,1.06-.54c3-1.59,3.14-2,2.66-5.38a50.34,50.34,0,0,0-5.16-16.89c-.88-1.65-1.53-3.42-2.32-5.23C411.28,283.51,413.92,279.34,416.7,275.26Zm-26.41,86.65c-.08,1.28-.15,2.55-.23,3.94C387.79,364.17,387.76,363.65,390.29,361.91ZM353.5,418.29l-18.75,16c3.16-8.05,7.14-15.69,10.77-23.17Zm-16.84,32.13c-.43-2.43-1.1-4.81-1.66-7.21a2.37,2.37,0,0,1,.65-2.68c7-6.07,13.66-12.57,21.38-18.08a16.56,16.56,0,0,1,1.57,1.25c11.4,11.54,24.51,20.84,38.26,29.29a7.14,7.14,0,0,1,3.65,4.38,3.83,3.83,0,0,0,3.06,2.87c2.25.57,4.38,1.94,6.85.77a2.13,2.13,0,0,1,1.38.16,5.66,5.66,0,0,1,1.29.72c9.46,6.23,19.72,10.8,30.22,14.92,5.51,2.16,10.94,4.54,16.41,6.82.89.37,1.76.79,2.8,1.25-.33,1-.57,1.82-.89,2.62-10.26,26.42-20.82,52.73-30.73,79.28-14.2,38-28.18,76.13-40.16,114.93-5.3,17.16-10.32,34.42-15.48,51.64-.31,1-.64,2-1.07,3.45-1.09-.41-2.06-.76-3-1.13a300.66,300.66,0,0,1-35.07-16.54q-13.05-7-25.56-14.93c-16.33-10.31-31.55-22.05-46.62-34.08a309.76,309.76,0,0,1-43.7-42.89c-4.33-5.14-8.61-10.32-12.9-15.48-.63-.75-1.2-1.54-1.86-2.38.51-.94,1-1.8,1.44-2.65,10.73-18.92,22-37.53,34.39-55.37,8.8-12.64,18.31-24.8,27.42-37.23,9.58-13.1,20.37-25.2,31-37.46a4.9,4.9,0,0,1,4-1.89c7.8-.13,15.6-.38,23.4-.64,4.41-.15,6.5-2.1,7.31-6.54.77-4.27,1.66-8.53,2.35-12.82A13.53,13.53,0,0,0,336.66,450.42ZM601.83,594.6l6.35-1.06-6.35,4.5Zm6.13-6.28c-3.91-4.72-3.27-2.61-2-8.62a6.46,6.46,0,0,1,.33-1.14c2.19-5.22-.08-9.24-3.75-12.61a8.06,8.06,0,0,1-2.89-6.35c-.35-17.78-.87-35.55-1.34-53.32,0-.68,0-1.35,0-2.34l13.75-.57c1.2,5.63,2.94,10.92,2.57,16.66-.26,4,2,6.84,5.59,8.61,1.32.66,2.71,1.17,4.05,1.81a5.64,5.64,0,0,0,3.72.23c3.4-.69,5.59-2.33,6.53-5.89a25.3,25.3,0,0,1,4.21-8.33c.57.72,1.16,1.16,1.34,1.73.78,2.48,2.52,4.18,4.41,5.81,1.13,1,2.23,2,3.26,3a11.93,11.93,0,0,1,1.29,2.15,24.64,24.64,0,0,1-2.4-.6c-1.48-.55-2.93-1.18-4.4-1.75-3.49-1.34-4.8-.47-4.86,3.2-.15,8.1-.33,16.2-.4,24.3a7.15,7.15,0,0,1-1.9,5c-5.63,6.35-11.09,12.87-16.69,19.25a20.62,20.62,0,0,0-4.27,7c-.48,1.4-1.2,2.71-1.66,4.12a5.06,5.06,0,0,1-4,3.65C609.89,590.79,609.84,590.6,608,588.32Zm10.82-251.48c.16,3.36.3,6.7,1.45,9.91a15.18,15.18,0,0,0,.55,1.69c.44.85,1.39,1.64,1.41,2.47,0,2.51-.27,5-.45,7.75a3.25,3.25,0,0,1-2.39-2.16c-1.12-2.2-2.31-4.37-3.26-6.64a8.19,8.19,0,0,0-4.51-4.8,4.64,4.64,0,0,1-2.91-3.73,71.55,71.55,0,0,0-2.24-6.9l14.31-2.26C618.69,333.46,618.7,335.1,618.78,336.84Zm9.35,16.51a4.43,4.43,0,0,1,1.17,3.59C628.28,355.69,628.28,355.69,628.13,353.35Zm97.8-12c4.62,2.62,4.61,2.62,9.11-.64l3.39,1.61a42.07,42.07,0,0,0-4.1,2.17c-1.21.83-2.13,2.19-3.42,2.78a30.55,30.55,0,0,1-5.25,1.4c-2.31-3.42-4.51-6.46-5.42-10.18a5.09,5.09,0,0,0-3.83-4.06c-2.33-.6-3.52-2.11-4.28-4.36-2.08-6.16-4.33-12.26-6.55-18.37a5.22,5.22,0,0,1,.42-4.78c3.09,0,4.32.91,5,3.73a17,17,0,0,1,.46,2.32c.43,5.26,2.65,9.89,5.3,14.28.92,1.52,2.55,2.62,4.14,4.19a12,12,0,0,1,.08,1.57C720.76,336.92,722.69,339.53,725.93,341.37ZM682.61,239l9.95-7.69c2.08,1.09,2.43,2,1.3,4.06a19,19,0,0,1-5.29,6.1Zm24.26-41.11a2.76,2.76,0,0,1-2.55,2.37c-6.57,1.37-13.13,2.79-19.64,4.39S671.5,208.1,665,210a3.84,3.84,0,0,1-4.23-1A73.48,73.48,0,0,0,644.66,197c-4.42-2.35-9.12-4.2-13.72-6.21-2.32-1-4.7-1.9-7.33-3,.86-1,1.45-1.77,2.1-2.48a256.88,256.88,0,0,1,25-24.39c2.35-2,4.51-4.15,6.69-6.29a2.82,2.82,0,0,1,2.91-.81c2.45.52,4.61,1.26,6.3,3.38,2,2.47,4.38,4.55,6.46,6.93a5.5,5.5,0,0,0,4.7,1.94c3.25-.1,6.52-.14,9.77,0a8.59,8.59,0,0,1,7.76,4.95A61.91,61.91,0,0,1,698,177a17,17,0,0,0,6.37,8.29,19.87,19.87,0,0,1,3.13,3.09,3.82,3.82,0,0,1,.82,3.86C707.77,194.08,707.27,196,706.87,197.92ZM635.31,168c-5.88,5.71-11.43,11.76-17.39,17.95a133.75,133.75,0,0,0-30.51-3.86c-.16-16.94-.32-33.51-.47-50.36,1.29.16,2.26.23,3.2.41q22.7,4.35,45.37,8.75a10.33,10.33,0,0,1,3.33,1.13c4.58,2.73,9.1,5.56,13.64,8.38a8.77,8.77,0,0,1,1,.92C647.36,157,641.17,162.32,635.31,168ZM588.38,187.3a99.48,99.48,0,0,1,29.54,4c17.44,5.3,33.38,13.4,45.51,27.53,2.48,2.89,4.32,6.35,6.34,9.63,1.12,1.83,2,3.82,3,5.83-.87.74-1.63,1.35-2.35,2-1.87,1.73-1.76,3.33.39,4.81a44.84,44.84,0,0,0,4.27,2.67,4.45,4.45,0,0,1,2.27,3.21c1.9,7.54,1.36,15.07.2,22.63a64.24,64.24,0,0,1-4.52,16.22,61.11,61.11,0,0,1-6.87,11c-5.66,7.74-12.85,13.91-20.75,19.27a8.83,8.83,0,0,1-1,.67c-9.93,4.92-20,9.61-31,11.48-4.27.72-8.65.76-13,1.2-7.32.75-14.59.14-21.87-.58a3.48,3.48,0,0,1-2.89-1.71c-.57-.92-1.26-1.77-1.88-2.67a13.88,13.88,0,0,0-6.33-5.14c-3.74-1.54-7.44-3.19-11.13-4.85a17.93,17.93,0,0,1-3.33-1.9c-.52-.38-.74-1.14-1.34-2.13,1.47,0,2.34,0,3.21,0,4.23.18,6.82-1.66,8-5.74.42-1.42.83-2.84,1.25-4.26a2.69,2.69,0,0,0-1.22-3.33c-5-3.13-10-6.38-15.16-9.28a9,9,0,0,0-8-.55c-4,1.6-8.19,2.89-12.34,4.2a4.79,4.79,0,0,1-3.08.06c-5.45-2.53-11.22-2.82-17.07-2.83-1.16,0-2.71.45-3.24-1.77,2.79-1.21,5.62-2.51,8.52-3.65a4.38,4.38,0,0,1,2.3.17c2.89.65,5.78,1.32,8.64,2.06a4.84,4.84,0,0,0,4.46-.82,32.76,32.76,0,0,1,4.94-3.27c2.68-1.32,2.89-3.82,3.31-6.22a2.78,2.78,0,0,0-.6-1.92c-2.89-3.71-5.16-8-9.42-10.5a16.74,16.74,0,0,0-3.42-1.63c-3.58-1.1-7.47-1.54-10.71-3.25s-5.66-4.57-8.44-7c-1.79-1.53-3.43-3.37-6.53-2.56a35.22,35.22,0,0,1,.65-5.93c2.26-7.82,5.32-15.2,10.55-21.66,8.16-10.07,18.46-17.09,30-22.61,12.11-5.79,24.94-8.67,38.19-10C580.51,187.9,584.44,187.33,588.38,187.3ZM579.71,65.18V88.27c-.75.1-1.5.26-2.27.3-3.05.15-6.12.33-9.18.37-7.44.07-14.74,1.36-22.08,2.35-7,.94-14.09,2.08-21.17,2.61a101.9,101.9,0,0,0-13.07,2.22,16.71,16.71,0,0,1-4.11.34c-3.95-.16-7.9-.37-11.83-.74a7.41,7.41,0,0,0-6,1.73,7.16,7.16,0,0,1-1.71,1.16c-1.36.66-2.66.76-3.6-.73a5.68,5.68,0,0,1,4.64-3.26,19.07,19.07,0,0,1,2.31-.5c3.74-.06,5.55-2.46,6.91-5.5,1.18-2.61.06-4.44-2.79-4.09-4.31.53-8.59,1.3-12.88,2-1.66.26-3.3.68-5,.8a5.62,5.62,0,0,0-4.21,2.37c-3.76,4.71-7.7,9.28-11.38,14.06a47.11,47.11,0,0,0-3.4,6.18,6,6,0,0,1-.56-1.6c-.06-1.78,0-3.56-.05-5.33-.12-2.28-1.27-3.19-3.48-2.9a11.77,11.77,0,0,0-7.16,3.15c-2.72,2.72-5.73,5.14-8.36,7.94A4.64,4.64,0,0,1,434,112.6c-2.54-.8-5.05-1.72-7.58-2.56-8.61-2.87-17.23-5.72-26.45-8.78C458,78.46,517.89,67.48,579.71,65.18ZM217.05,221.34c8.17-9,17.15-17.24,26.19-25.35a492.05,492.05,0,0,1,69.66-52.66,519.39,519.39,0,0,1,61.8-32.58c4.95-2.21,10-4.13,15.11-6.07a5,5,0,0,1,3.09-.14c13,4.18,25.9,8.46,38.84,12.72a12.38,12.38,0,0,1,1.47.73c.07,1.23.15,2.49.24,3.88-1,.56-1.91,1.12-2.86,1.61-4.3,2.22-8.67,4.3-12.9,6.66a8.59,8.59,0,0,1-6.78,1,5.73,5.73,0,0,0-5.24,1.11c-3.62,2.59-7.37,5-11,7.55a3.46,3.46,0,0,1-3.82.57,9,9,0,0,0-2.27-.66c-1.81-.32-3.56-1.83-5.4-.85-2.57,1.38-5.47,2.51-6.79,5.46-1.47,3.31-4.08,4.91-7.46,6.08-12.22,4.22-24.36,8.7-36.5,13.16a5.17,5.17,0,0,1-5-.26c-1.17-.72-2.49-1.2-3.71-1.85a3.36,3.36,0,0,0-3.86.37c-5.35,3.89-10.8,7.66-16.07,11.66a14.85,14.85,0,0,0-3.25,4.15,5.14,5.14,0,0,1-3.46,2.46c-6.72,1.63-13.41,3.36-20.1,5.1a38.56,38.56,0,0,0-4.77,1.57c-6.48,2.67-12.92,5.45-19.41,8.1a11.79,11.79,0,0,0-4.51,3.23c-2.74,3.11-5.23,6.61-8.49,9.05s-7.21,3.6-10.83,5.41a15.76,15.76,0,0,0-3.17,2.14c-3,2.59-5.89,5.27-8.83,7.9a2.78,2.78,0,0,1-1.79.82C215.81,222.74,216.42,222,217.05,221.34ZM63.4,642c-1.95-20.68-2.06-41.4-1.43-62.15.36-11.86,1.3-23.66,2.49-35.45a2.73,2.73,0,0,1,2.05-2.8c1.88-.6,3.67-1.45,5.53-2.12a30.33,30.33,0,0,1,3.15-.73,25,25,0,0,1,0,4.56c-.86,4.05-2,8.05-2.85,12.1a3.15,3.15,0,0,1-1.91,2.41c-1.25.59-2.47,1.23-3.7,1.87-2.62,1.38-2.91,2.08-2,5,.69,2.27,1.39,4.53,2.19,6.76a5.14,5.14,0,0,1,0,4c-2.06,4.68-1.94,9.57-1.6,14.54.61,8.87,1,17.75,1.51,26.62.18,3.35.67,3.84,4,4.16.59,0,1.19,0,1.78.13,2.23.34,2.7.75,3,3,.49,4.41.91,8.84,1.33,13.26a4.32,4.32,0,0,1-.19,2c-1.31,3.09-2.67,6.15-4.12,9.18A2.93,2.93,0,0,1,71,649.52c-2,.77-4.08,1.41-6.52,2.23C64.13,648.34,63.7,645.16,63.4,642Zm177,349a7.72,7.72,0,0,1-6.43-2.21c-8.81-8.1-17.28-16.53-25.34-25.38-5.12-5.63-10.55-11-15.5-16.76-5.14-6-10-12.28-14.75-18.57q-13.7-18.07-27.15-36.34c-2.27-3.09-4.07-6.54-6.06-9.83-9.78-16.15-19-32.65-27.68-49.38-3.84-7.35-7.19-15-10.35-22.64-6-14.7-12.35-29.34-17.54-44.35C85,752.41,81.9,738.89,78.19,725.58c-1.06-3.81-1.91-7.68-3-11.47-3.24-11-4.47-22.46-6.44-33.74-1.24-7.1-2.24-14.25-3.34-21.37-.09-.57-.13-1.15-.21-2,2.65-.93,5.21-2,7.84-2.69a6.08,6.08,0,0,0,4.33-4c1.24-3.12,2.79-6.11,4-9.23a8.35,8.35,0,0,0,.61-3.69c-.43-5.42-1.07-10.82-1.53-16.24-.17-2-.89-3.38-2.87-4s-3.71-1.24-5.77-1.93c-.24-4.13-.51-8.35-.74-12.57-.3-5.72-.46-11.46-.89-17.17a14.83,14.83,0,0,1,1.1-7,12,12,0,0,0,0-10.26,33.71,33.71,0,0,1-1.38-4.43c1.44-.77,2.77-1.59,4.19-2.21a4.57,4.57,0,0,0,2.85-3.49c1.1-4.81,2.27-9.61,3.46-14.41.76-3.06-.4-5.85-1.25-8.66a2.29,2.29,0,0,0-2.69-1.4c-2.33.34-4.66.72-7,1.25a36.71,36.71,0,0,0-4.29,1.62c.59-5,1-9.52,1.68-14,1.82-11.52,3.59-23,5.73-34.5a472.66,472.66,0,0,1,25.33-87.22,480.06,480.06,0,0,1,20.93-45.79c9.39-17.94,19.9-35.27,30.87-52.32,9.7-15.07,20.66-29.2,31.16-43.68a48.35,48.35,0,0,1,4.62-5q8.85-9.18,17.72-18.34c.9-.95,1.74-1.84,3.23-1.75,4.29.24,7.55-2.15,10.61-4.61,3.76-3,7.19-6.49,10.87-9.64a17.51,17.51,0,0,1,4.87-3.25,37.36,37.36,0,0,0,17.77-13.19c1.62-2.22,3.88-3.45,6.36-4.59a189.38,189.38,0,0,1,40.39-13.39c.29-.06.58-.17.87-.2,3.21-.35,5.29-2.1,6.87-4.9a13.67,13.67,0,0,1,3.77-4c4.33-3.28,8.8-6.37,13.37-9.65,1.76.84,3.56,1.62,5.28,2.55a4.82,4.82,0,0,0,4.24.24q21.69-7.94,43.44-15.76a5.5,5.5,0,0,0,3.1-2.55c.85-1.46,1.73-2.89,2.69-4.27,1.61-2.3,3.41-2.88,6.08-2.13,8.3,2.34,5.42,2.74,12.62-2,2.64-1.73,5.27-3.49,7.83-5.34a4.13,4.13,0,0,1,3.86-.87,9.57,9.57,0,0,0,7.63-1.18c5.37-2.94,10.88-5.62,16.33-8.41,3.58-1.83,3.58-1.83,3.27-6-.07-.87-.12-1.75-.14-2.15a34,34,0,0,0,4.14-3.65c2.87-3.57,6.4-6.32,10.57-9.47,0,2.1,0,3.62,0,5.15a3.16,3.16,0,0,0,2.53,3.49c1.33.39,2.61.93,3.94,1.31,1.89.54,2.72.15,3.59-1.57a3.46,3.46,0,0,0,.34-.82c1-4.18,3.5-7.44,6.25-10.6A95,95,0,0,0,476,94.93c1.6-2.3,3.6-3.12,6.68-2.84-1.2,1.37-2.24,2.51-3.23,3.7-1.6,1.95-1.51,3.08.33,4.82.57.55,1.18,1,1.78,1.57,2.87,2.52,6.64,2.9,9.66.6A8.48,8.48,0,0,1,498,101c2.33.36,4.73.28,7.09.53a23.77,23.77,0,0,0,9.38-.7c1.6-.48,3.27-.73,5.24-1.16a36.3,36.3,0,0,1,1.41,4.15,4,4,0,0,1-2.74,4.33c-1.51.46-3.07.78-4.58,1.24-2.18.66-2.68,1.48-2.36,3.68,0,.29.1.58.16.87.73,4,1.91,4.58,5.35,2.61a3.58,3.58,0,0,1,3.08-.36c2.84.86,5.68,1.72,8.55,2.44a7.07,7.07,0,0,1,4.27,3c-.64,1.48-2,2.92-.61,4.6s3,.59,4.73-.18l3.07,2.62c-1,.65-1.63,1-2.22,1.54q-6.68,5.66-13.32,11.35a6.71,6.71,0,0,0-2.14,2.36c-.62,1.77-1.84,2.09-3.41,2.23q-10,.93-20.06,2a25.71,25.71,0,0,0-4.92,1c-12.71,4-25.47,7.88-38.07,12.21-4.73,1.62-9.12,4.23-13.57,6.57-2.1,1.11-4.06,1.76-6.46,1a45.94,45.94,0,0,0-6.1-1.17c-2-.34-3.18.26-3.56,1.74s.31,2.64,2.21,3.28c2.62.88,5.26,1.72,7.92,2.44a7.72,7.72,0,0,1,3.69,2.32,2.82,2.82,0,0,1,.82,2.67,55.22,55.22,0,0,0-.81,5.87,2.53,2.53,0,0,1-2.06,2.49c-5.38,1.68-9.69,5.27-14.33,8.25a11,11,0,0,0-2.73,3.43,4.93,4.93,0,0,1-3.41,2.49c-3.53.71-4.61,4.53-2.17,7.26,1.05,1.17,2.18,2.29,3.32,3.39a6.69,6.69,0,0,1,2.07,3.48c.55,2.53,2.8,3.46,4.83,4.37a2.26,2.26,0,0,0,2.91-1.45c1.47-3.34,4.33-4.21,7.54-4.86a5.88,5.88,0,0,0,4-8.62c-.17-.35-.33-.71-.65-1.41,1.53-1.4,3-2.94,4.74-4.23a3.07,3.07,0,0,1,2.43-.22c6,2,12,4,17.95,6.1a13.86,13.86,0,0,1,7.42,5.58c1.2,1.93,2.72,3.65,4,5.55,1,1.53,2.18,2.52,4.3,2.16.15,2.69.29,5.23.44,7.88a14.66,14.66,0,0,1-2.33,1.33c-2.8,1-3.82,2.9-3.39,5.73a.76.76,0,0,1,0,.3,4.61,4.61,0,0,0,2.53,5.19c1.68.88,2.09,2.23,1.37,4.18-1.53.74-3.23,1.52-4.88,2.39-2,1.07-2.35,2-1.53,4.09.22.55.54,1.06.74,1.62a3.72,3.72,0,0,0,4.32,2.74c4-.37,8.06-.66,12.09-1,.57,0,1.15-.05,2-.09.07,10.38.8,20.57,5.44,30a2.72,2.72,0,0,1-3.72-.57c-2.09-2.23-4.86-2.69-7.62-3.53a38.46,38.46,0,0,0-23,0c-1.7.51-3.52.59-5.22,1.08a2.73,2.73,0,0,1-3.31-1.18A8.27,8.27,0,0,1,453,278.3c-1.47-3.87-2.88-7.76-4.4-11.92,1.86-1,3.74-1.85,5.41-3a60,60,0,0,0,4.77-4c1.44,1,2.92,1.92,4.33,2.94,2.47,1.79,4.95.84,7.3-.09.64-.25,1.17-1.61,1.17-2.47,0-3.45-.1-6.86-2.59-9.75a51.57,51.57,0,0,1-3.84-5.88c2-1.35,3.83-2.67,5.74-3.85a4,4,0,0,0,2.1-3.92c-.08-1.28.06-2.58-.06-3.85-.18-1.86-1-2.7-2.88-2.66-2.35,0-4.7.33-7,.58-1,.12-2.06.42-3.45.71.7-2.58,1.33-4.73,1.87-6.9.65-2.58-.22-3.84-2.81-3.9-3.46-.08-6.93-.21-10.37,0a12.3,12.3,0,0,0-10.7,7.25,2.62,2.62,0,0,0,.63,3.46c1,.91,2.05,1.79,3.17,2.77-2.18,2.12-2.33,4.88-3,7.41a3.71,3.71,0,0,0,.7,2.44c1,1.61,2.13,3.09,3.17,4.66.46.7.82,1.47,1.52,2.76a79.33,79.33,0,0,0-8.83-1.56,72.27,72.27,0,0,0-8.51.47c-.57-1.14-1.13-2.25-1.84-3.64,2.22-1.45,4.34-2.83,6.46-4.23a16.08,16.08,0,0,0,2.42-1.69,2.44,2.44,0,0,0-1-4.23,4.59,4.59,0,0,0-1.16-.23c-4-.33-8.08-.7-12.12-.94a5.33,5.33,0,0,0-2.52.59c-3.31,1.57-6.59,3.19-8.76,6.36a9.66,9.66,0,0,1-1.24,1.2l-4-1.9c0-2.92-.1-5.58,0-8.23.09-1.67,0-3.18-1.25-4.39-3.26-3.24-4.21-7.17-3.71-11.62a24,24,0,0,0,0-4.15c-.13-1.93-.81-2.65-2.75-2.78-2.56-.16-5.14-.24-7.7-.21-2.17,0-2.81.76-3.21,3.06a31.7,31.7,0,0,0-.09,12.65,14.14,14.14,0,0,1,.13,2.06l-5.64,2.92a7.91,7.91,0,0,0-2.07,1.13,4.81,4.81,0,0,0-1.43,2.39,2.25,2.25,0,0,0,1.84,2.37l8.46,2.72c3.22,1,3.8,2,3.52,6-2.46.89-5,1.82-7.62,2.77-3.3,1.21-3.67,2-2.42,5.3.49,1.29,1,2.59,1.52,3.86.88,2,1.43,2.38,3.64,2.25,3.06-.18,6.11-.49,9.16-.67a4.9,4.9,0,0,1,2.58.31c3.55,2.07,7.52,2.27,11.42,2.86,1.82.28,3.63.6,5.62.93-.66,2.44-1.75,4-4.21,4.1-4,.11-6.49,2.16-8.12,5.74a15.68,15.68,0,0,1-3.07,3.92c-1.63,1.73-3.32,3.4-5.1,5-2.14,1.87-3.81,3.9-4.15,6.9a5.47,5.47,0,0,1-1.74,2.56,15.53,15.53,0,0,1-2.38,1.75,3.08,3.08,0,0,0-1.31,3.59c1.07,4.59,1.4,4.95,6.16,4.78a12.94,12.94,0,0,0,3.7-.82c1.48-.53,2.88-1.27,4.34-1.92,1.46,1.15,1.54,2.46.45,3.61-2.5,2.66-5.13,5.21-7.76,7.76a4.73,4.73,0,0,1-1.57.79c-2.83,1.16-5.71,2.21-8.5,3.47a2.6,2.6,0,0,1-3.57-1c-.48-.64-.88-1.32-1.31-2-2.79-4.32-5.62-8.61-8.36-12.95a4.94,4.94,0,0,0-3.71-2.59c-2-.28-4.06-.9-6.1-1.22a8.68,8.68,0,0,1-6.34-3.93c-1.56-2.47-3.65-3.25-6.5-3.08a34.57,34.57,0,0,1-14.87-1.84,4.72,4.72,0,0,0-3.1.08c-5.91,2.22-11.79,4.55-17.66,6.9-2.48,1-2.72,1.59-2.2,4.34.13.68.26,1.36.4,2,.59,2.78.3,3.24-2.28,4.16-1.44.51-3.37.38-4.06,2.09-.87,2.17-1.88,4.34-1.62,6.83.33,3.13.49,6.29.79,9.43a3.47,3.47,0,0,1-1.3,3.06c-4.3,4.22-8.62,8.44-12.64,12.92a37.83,37.83,0,0,0-4.4,7,4.89,4.89,0,0,0-.4,2.56c.11,1.77.42,3.53.59,5.3.28,3-.52,4.16-3.4,4.78-4.94,1.06-7.86,4.53-10.36,8.53-.15.24-.2.56-.37.8-3.16,4.78-2.81,10.16-2.63,15.49.11,3.26,4.35,5.57,7.19,4,2-1.11,3.91-2.3,5.83-3.52a12,12,0,0,0,5.47-6.74,3.51,3.51,0,0,1,3.57-2.86c6.27-.35,11.77-3.08,17.31-5.72a5.23,5.23,0,0,0,2.63-2.65c.81-1.8,1.87-3.5,2.58-5.33a4.27,4.27,0,0,1,3.49-2.72,28.33,28.33,0,0,0,5.32-1.75c7.31-3.25,14.58-6.59,21.87-9.89,3-1.37,3.78-1,4.58,2.12a10.59,10.59,0,0,1,.44,1.72,6.9,6.9,0,0,0,4.26,5.89c2.26,1.14,2.52,2.38,1,4.5a6.08,6.08,0,0,0-1,4.19,35.38,35.38,0,0,1-1.93,14.28,5.48,5.48,0,0,1-2.13,3.05c-2.4,1.57-4.57,3.57-7.12,4.79-3.16,1.5-3.87,4-3.8,7a28.55,28.55,0,0,0,.54,4.11,4.87,4.87,0,0,0,7,3.78c2.45-1,4.86-2.2,7.29-3.28.69-.3,1.41-.52,2.21-.81a2.36,2.36,0,0,1-1.44,3c-4.25,1.66-6.11,5.29-7.93,9.09q-6.42,13.35-13.1,26.59a4.71,4.71,0,0,0,.06,5c2.24,4,2.52,8.68,3.6,13.08.21.88-.26,1.93-.43,2.9-.65,3.6-1.29,7.2-2,10.79-.42,2.19-.73,2.5-2.9,2.58-7.7.26-15.41.43-23.11.71a6,6,0,0,1-5.13-2.4c-1.68-2.08-3.4-4.12-5-6.27a4.93,4.93,0,0,0-4.2-2.3,24,24,0,0,1-3.42-.52c1.11-4.43,1.11-4.43-1.58-8.29a29.4,29.4,0,0,1-2.67-3.91c-1.81-3.76-5.2-5.21-8.82-6.37-2.06-.66-3.2,0-3.71,2.09a7.33,7.33,0,0,0,.67,5.7c1.61,2.81,3,5.77,4.31,8.44a7.32,7.32,0,0,1-4.74,4.25,9.75,9.75,0,0,0-5.91,5.83,8.15,8.15,0,0,0-.6,3.37c.2,3.29,1.46,5.88,5,6.81a14.11,14.11,0,0,1,2.51,1.27,28.52,28.52,0,0,1-.25,3.25,4,4,0,0,0,2.36,4.87,2.31,2.31,0,0,1,1.22,1.53,38.37,38.37,0,0,1-5.27-1,12.43,12.43,0,0,0-7-.61A22.44,22.44,0,0,1,256,486c-2.26,0-3.78,1.45-5.87,2.79a3,3,0,0,1,1.92-2.43c2-1.13,4-2.2,5.92-3.38s2.2-2.16,1.3-4.2c-.16-.36-.41-.69-.54-1.06-1-2.79-3-4.08-5.93-4.54-5.74-.9-11.34-2.63-17.27-2.38a20.43,20.43,0,0,1-6.09-1.16,15.64,15.64,0,0,0-7.6.17,3.11,3.11,0,0,0-2.62,2.46c-.42,1.61-1,3.18-1.49,4.9a8.48,8.48,0,0,1-5-3c-1.84-2.33-3.85-4.52-5.7-6.84a6,6,0,0,0-3.65-2.29c-2.71-.56-5.38-1.28-8.09-1.84a7.28,7.28,0,0,0-2.63-.11c-3.7.63-7.37,1.44-11.08,2a3.94,3.94,0,0,0-3.51,2.73c-1.34,4-4.41,5.28-8.22,5.52-2.94.18-5.87.62-8.83-.22a5.37,5.37,0,0,0-3.38.49,12.7,12.7,0,0,1-6,1.15c-2.47-.08-4.95.08-7.41-.06a4.29,4.29,0,0,0-4.06,1.87c-1.74,2.38-3.56,4.72-5.35,7.07-.06.08-.1.17-.16.25a54.26,54.26,0,0,0-9.08,19.78c-.65,2.92-2.38,4.61-5.62,5.25-1.08-2-.67-4.12-.29-6.19a6.44,6.44,0,0,1,.69-1.63,79,79,0,0,0,6.07-16.67,20.54,20.54,0,0,1,4.81-9.06c1.67-1.83,3.15-3.82,4.82-5.64a15.7,15.7,0,0,0,3-5.37,16.8,16.8,0,0,0,.86-9.54c-.92-4.55-1.59-9.15-2.18-13.76-.25-2-1-3.42-2.84-4.09-2.72-1-3.49-2.84-2.89-5.54.21-1-.08-2,.25-2.94,1.72-4.67.95-9.41.35-14.08a32.55,32.55,0,0,1,.47-10.29,8.68,8.68,0,0,0-6-9.76,30.14,30.14,0,0,1-3.69-1.08c-2.75-1.2-5.47-.65-8.12.07s-3.84,3-4.94,5.19c-1.51,3-2.68,6.17-4.13,9.19a21.22,21.22,0,0,1-2.91,4.77,57.4,57.4,0,0,0-12.73,25.74c-.07.29-.16.57-.25.86a64.67,64.67,0,0,0-2.66,20.47c.12,3.35-.14,6.72-.2,10.08-.06,2.76.27,3.39,2.85,4a22.75,22.75,0,0,0,5.22.47,32.37,32.37,0,0,0,4.32-.57c1.15,3.6,2.23,7.06,3.36,10.51.45,1.36-.51,2-1.27,2.74l-14.14,14a2.09,2.09,0,0,1-.22.2c-4.8,3.43-6.55,8.73-8.48,13.91-.68,1.8-.31,2.74,1.35,3.73,2,1.16,4,2.19,6.16,3.37.16,5.49.34,11,.45,16.54a8.65,8.65,0,0,1-.51,2.3c-.47,1.71-1.07,3.4-1.46,5.13a54.24,54.24,0,0,1-9.28,20.95,5.38,5.38,0,0,0-1.19,4.14c1.29,9.21-.23,18.34-.84,27.49-.18,2.57-.35,5.13-.65,7.68a3.58,3.58,0,0,0,2.16,4.08c2.91,1.46,5.74,3.08,8.74,4.7.09,3.49.22,6.93.25,10.38,0,4.47,2.08,8.4,3.36,12.53.4,1.29,1.61,1.61,2.84,1.79,2.15.31,4.29.71,6.44,1a3,3,0,0,1,2.52,1.75c3,5.36,6,10.67,9,16a7.2,7.2,0,0,1,.72,2.8,27.37,27.37,0,0,1,0,4.15,5.84,5.84,0,0,0,1.34,4.4,16.68,16.68,0,0,1,3.38,7.77c1.25,5.79,2.72,11.54,4,17.33a6.08,6.08,0,0,0,2.6,4.12,6.88,6.88,0,0,1,2.92,4.59c.46,2.12,1.27,4.17,1.66,6.3s1.69,3.34,3.78,4c3.76,1.22,7.42,2.72,11.16,4a4.89,4.89,0,0,1,3,2.61c1.71,3.34,3.5,6.65,5.33,9.92,1.6,2.84,4.8,4.5,5.8,7.83.16.51,1.09.77,1.94,1.34-.81,1.94-1.56,3.94-2.46,5.87a7.24,7.24,0,0,0-.54,4.87q4.56,21,9,42a4.7,4.7,0,0,0,2.35,3.56c.35.18.64.48,1,.66,10.15,5.09,16.42,14.1,22.41,23.11a62.86,62.86,0,0,1,8.75,18.4c1.48,5.53,3.3,11,5,16.42a3.63,3.63,0,0,1-.59,3.82c-1.38,1.68-2.55,3.52-3.83,5.28a2.76,2.76,0,0,0,.15,3.78,2,2,0,0,0,.19.22c4.84,4.53,7.18,10.59,9.88,16.39,1.1,2.37,2.49,3.79,5.14,3.45,3.67-.47,6.33,1.19,8.93,3.56,3.94,3.6,8.07,7,12.22,10.35a6,6,0,0,1,2.39,4.22c0,.49.14,1,.23,1.46.58,3.1,2.25,5.46,4.39,7.81a14.92,14.92,0,0,0,10.71,5.38c2.26.13,4.5.58,6.53.86,1.32,1.51,2.26,2.78,3.39,3.85,6,5.7,12,11.43,18.2,17a27.31,27.31,0,0,1,7,9,15.56,15.56,0,0,0,7.18,7.54c3.21,1.73,6.16,4,9.34,5.73,2.79,1.57,2.65,4.42,3.39,6.88.12.38-.46,1-.83,1.48-3.93,4.7-7.83,9.44-11.87,14-1.68,1.92-3.56,3.74-6.32,4.09-1.58.2-2.33,1.26-2.88,2.64-1.1,2.75-2.31,5.44-3.42,8a18.32,18.32,0,0,1-11.05-1.79,119.85,119.85,0,0,0-23.44-8.22A19.34,19.34,0,0,0,240.35,990.92Zm2.34,6,.3-.86c1.23.22,2.5.34,3.7.68a145.26,145.26,0,0,1,24.66,9.17,10.64,10.64,0,0,0,4,.89c2.07.14,4.15,0,6.23.06a3.51,3.51,0,0,0,3.85-2.52q1.37-3.6,3-7.09c.34-.74,1-1.7,1.65-1.86,3.32-.79,5.47-3.18,7.54-5.49,4.47-5,8.67-10.26,13.05-15.36a4.3,4.3,0,0,0,.94-4.36c-2.22-7.87-2.18-7.88-9.26-12.28a10.52,10.52,0,0,0-1-.62c-5.86-2.86-10.4-7-12.94-13.14a10.44,10.44,0,0,0-2.64-3.14c-4.08-3.88-8.21-7.71-12.32-11.56a1.73,1.73,0,0,1-.58-1.2c.75.36,1.5.7,2.25,1.07,14.23,7.07,28.38,14.32,42.74,21.14,8,3.81,16.34,7,24.59,10.28,2,.81,3,1.89,3,4.07s.37,4.53.5,6.8c.76,12.77,3.83,25.17,6,37.71a242.59,242.59,0,0,0,14.18,48.53c3.11,7.79,6.7,15.38,10.06,23.07a11.51,11.51,0,0,1,.94,3.09C327.57,1062.07,283.46,1032.05,242.69,996.89ZM610.81,1134.3c-.57.06-1,.14-1.35.14-13.73.07-27.45,0-41.18-.89-14.41-1-28.74-2.55-43-4.56a470.05,470.05,0,0,1-47.11-9,587.2,587.2,0,0,1-63.39-19.47c-9.62-3.56-18.93-8-28.33-12.09a4.79,4.79,0,0,1-2.21-2.17c-8-16.86-15.6-33.94-21.08-51.81a248.59,248.59,0,0,1-7.44-32.32c-1.2-7.21-2.73-14.36-3.8-21.59-.77-5.25-1-10.58-1.54-16.29,27.57,10.8,55.16,20.17,83.63,26.94a788.88,788.88,0,0,0,86.58,15.26c29.11,3.57,58.31,3.86,87.46,3.56l.31.27a.79.79,0,0,1,.17.25,6.48,6.48,0,0,1,.22,1.15q1.17,60.77,2.33,121.53A5.46,5.46,0,0,1,610.81,1134.3ZM613,963.93c0-3.59.75-4.64,4.33-5.36,1.93-.39,3.91-.56,5.86-.82l.3,0c7.94-2.1,15.63-.31,23.38,1.31a15.73,15.73,0,0,1,8.73,4.44c2.38,2.5,5.08,4.7,7.66,7,2.79,2.5,7.3,3.27,10.38,1.31,3.74-2.38,7.84-1.45,11.8-1.85.51,0,1.22.58,1.62,1.08,2.78,3.46,5.51,7,8.41,10.67-2.39,6.06-5.18,11.79-5.33,18.49-1,.11-1.88.25-2.73.29-7.6.4-15.2.67-22.79,1.2-6.31.44-12.58,1.38-18.89,1.73-10,.56-19.94.82-29.92,1.2-.58,0-1.16-.05-1.91-.1a16.62,16.62,0,0,1-.27-2Q613.34,983.21,613,963.93Zm3.16,170.62c-.82-41.72-1.62-83.06-2.43-124.67,3.33-.18,6.37-.39,9.41-.5,7.11-.26,14.23-.3,21.33-.74,7.49-.47,15-1.41,22.44-2,6.3-.46,12.63-.66,18.95-1,.64,0,1.29,0,2.52,0-1.45,1.9-2.59,3.35-3.68,4.82-1.65,2.24-1.64,3.39.64,4.94,9.84,6.73,17,16.24,25.23,24.55a9.13,9.13,0,0,1,1.55,2.5c1.19,2.49,2.27,5,3.47,7.53a9.1,9.1,0,0,1,.76,4.29,11.68,11.68,0,0,1-3.39,8.55c-.63.62-1,1.51-1.68,2.06-5.42,4.5-5.43,10.85-5.89,17a2.83,2.83,0,0,0,.27,1.72c2.25,3.32,3.85,7.07,7.31,9.56,9,6.45,17.85,13.1,26.75,19.67.87.64,1.71,1.31,3,2.32C701.25,1127.36,659.41,1134.11,616.2,1134.55ZM753,1112.7l-.24-.54c.71-.48,1.39-1,2.14-1.44,6.49-3.71,13-7.31,20.38-9.14a19.91,19.91,0,0,1,3.73-.86c2.65-.13,5.31,0,8,0,.08.22.15.45.22.67ZM842,1070.32a50.23,50.23,0,0,0-1,5.85,3.14,3.14,0,0,1-2.07,2.87c-11.89,5.34-23.75,10.76-35.63,16.13a5.69,5.69,0,0,1-2.26.51c-7.11,0-14.23-.42-21.32,0a33.23,33.23,0,0,0-11.15,2.73c-6.06,2.6-11.84,5.85-17.74,8.84-.61.31-1.16.76-1.78,1.06-2.7,1.32-5.06,1.67-7.85-.5-8.18-6.38-16.6-12.45-25-18.52-2.54-1.83-3.77-4.53-5.35-7-.31-.49-.12-1.32-.14-2a16,16,0,0,1,4.94-12.51c1-1,1.78-2.37,2.79-3.46,1.75-1.9,2.31-4.12,2.77-6.65.81-4.43-.18-8.23-2-12.24A41.91,41.91,0,0,0,710,1031.8c-3.29-3.12-6.3-6.55-9.39-9.89a51.66,51.66,0,0,0-8.77-7.94,23.36,23.36,0,0,1-1.93-1.64,31.72,31.72,0,0,1,2.21-2.87,9.46,9.46,0,0,0,2.69-6.1,52.32,52.32,0,0,1,5.19-19,5.27,5.27,0,0,0-.86-6.45c-3.11-3.58-6-7.37-8.82-11.17a4.37,4.37,0,0,0-4.28-2,58.44,58.44,0,0,1-5.92.18,14.29,14.29,0,0,0-8.2,2.05c-2,1.29-4,.79-5.67-.75-3.38-3-6.79-6.05-10.11-9.16a8.05,8.05,0,0,0-4.11-2.14c-5.62-1.09-11.23-2.27-16.85-3.36a9.54,9.54,0,0,0-2.92-.1c-5.2.65-10.38,1.36-15.57,2.07a5.38,5.38,0,0,0-2.27.54c-3.91,2.65-8.45,3.19-12.91,4-1.84.34-3.71.57-5.54,1s-3.93.36-5.49,1.93c-1.31,1.32-2.83,2.44-4.33,3.72-2.18-.93-4.22-1.93-6.36-2.64a10.23,10.23,0,0,0-4.29-.62c-9.22,1.08-18.45,2.14-27.62,3.58a38.19,38.19,0,0,0-9.17,3.21c-1.06.46-1.77,1.79-2.57,2.79-1.78,2.22-2.81,2.42-4.82.58-2.62-2.4-5.1-5-7.73-7.35a30.16,30.16,0,0,0-4.39-3.43c-2.43-1.5-5-2.74-7.5-4.18a159,159,0,0,0-25.36-12.13,5.63,5.63,0,0,1-3.73-3.78,12.32,12.32,0,0,0-2.13-3.51c-5.44-6.79-10.93-13.53-16.41-20.29-.31-.38-.63-.76-.93-1.15a27.76,27.76,0,0,1-5.24-10.45c-1.78-6.84-1.35-13.73-1.55-20.61a10.3,10.3,0,0,1,.64-2.88c2.7-9.81,5.6-19.56,8-29.44.85-3.48.54-7.25.66-10.89.06-1.46-.88-2.31-2.24-2.77-2-.68-4.06-1.41-6.41-2.23,1-1.22,1.82-2.2,2.64-3.16,7.32-8.58,14.67-17.12,21.93-25.74a16.37,16.37,0,0,1,5.62-4.69,13.7,13.7,0,0,0,6.23-5.69c.1-.17.25-.31.35-.48,3.23-5.5,8.41-8.09,14.31-9.59a17.46,17.46,0,0,1,2-.44,6.28,6.28,0,0,0,4.88-3.37,17.48,17.48,0,0,1,3.5-4,69.71,69.71,0,0,1,6.25-5,5.88,5.88,0,0,0,2.82-4.91,11.39,11.39,0,0,1,3.71-8.08c3.74-3.79,6.7-8.31,11-11.61a6,6,0,0,0,1.45-2.18,37.72,37.72,0,0,0,2.45-5.72c1.49-5.43,5.54-8.69,9.82-12.19,1.34,1.16,2.7,2.28,4,3.47a4.09,4.09,0,0,0,3.79,1,86.82,86.82,0,0,0,18.62-4.66c6.24-2.49,12.62-4.61,18.94-6.87,1.64-.59,3.26-1.17,3.19-3.51,1.46-.18,2.72-.33,4-.51l16.71-2.35c6.65-.94,13.3-1.93,20-2.79,7.55-1,15.1-1.86,22.66-2.76a10,10,0,0,1,2.05-.06,2.53,2.53,0,0,1,2.59,2.62,40,40,0,0,0,.94,5.85,3.56,3.56,0,0,1-1.09,3.72c-1.19,1.12-2.75,2.22-2,4.24.93,2.59,1.2,5.26,4.59,6.64,11,4.49,22.53,7.31,33.85,10.79,2,.61,3.67,1.24,4.32,3.46.44,1.5,1.65,2,3.18,2.22,5.69.64,11.37,1.41,17.07,2a7.21,7.21,0,0,0,3.16-.52,9.41,9.41,0,0,1,5.79-.6c4.7,1.24,7.87-1.67,11.15-4.12.58-.43.72-1.53.89-2.35a2.23,2.23,0,0,0-.29-1.43c-1.91-3.51-.5-5.92,2.51-7.84a3.32,3.32,0,0,0,.46-.38c9.93-8.58,5.83-6.3,18.59-9.25,4.81-1.12,9.7-1.91,14.46-3.19,4.28-1.16,8.44-2.76,12.63-4.23,6.06-2.13,12.11-4.27,18.13-6.51a25,25,0,0,1,8.36-1.72c3,0,5.92-.33,8.88-.36a5.85,5.85,0,0,0,4-1.62A18.38,18.38,0,0,0,847,700.4c2.34-6.18,3.15-12.2,1.62-18.76s-2.21-13.25-3.28-19.88c-.06-.39-.15-.77-.24-1.16-.66-2.88-2.51-3.75-4.65-1.8-3.7,3.36-8.06,5.15-12.71,6.64-4.42,1.41-8.71,3.21-13,4.92a10.41,10.41,0,0,1-5.76.85c-.2,0-.4,0-.6,0-4.82-.58-9.65-1.18-14.11,2.09a9.56,9.56,0,0,0-8.57-4.55,13.4,13.4,0,0,1-1.22-8,49.44,49.44,0,0,1,3.73-12.13,7.05,7.05,0,0,1,2.23-2.63c3-2.25,6.33-4.1,9.06-6.62,3.18-2.93,5.87-6.39,8.76-9.63,1.77-2,3.49-4,5.27-6,5.84-6.5,13.21-10.56,21.44-13.14a56.07,56.07,0,0,0,10.47-4.81,4.71,4.71,0,0,0,2.32-3.2,11.9,11.9,0,0,0-2-10.63,10.67,10.67,0,0,0-2.58-2.33c-6.78-4.83-14.53-7.47-22.4-9.83-1.21-.37-2.4-.83-3.73-1.29l-1.78-10.27a26.2,26.2,0,0,0-.56-2.91c-.7-2.35-2.73-2.84-4.53-1.13a11.18,11.18,0,0,0-.78.9c-3.77,4.44-7.56,8.88-11.32,13.34-2.3,2.72-2.12,3.49.51,5.82a14.52,14.52,0,0,0,8.14,3.84c1.46.18,2.9.57,4.36.84,1.14.22,2.32.66,2.06,2a2.56,2.56,0,0,1-2.52,2.12c-.78,0-1.57-.17-2.36-.23-3.14-.22-6.29-.57-9.44-.59-1.92,0-3.48-.36-4.62-2-1.42-2-3.59-2.67-5.81-3.24a3.08,3.08,0,0,0-3.62,1.26c-2.07,2.9-4.3,5.68-6.27,8.64a23,23,0,0,0-1.65,4.09,27.37,27.37,0,0,0-1.86,14.77,7.85,7.85,0,0,1,.09,1.19,48.71,48.71,0,0,0,5.08,22c.5,1,.81,2.19,1.25,3.4a39.06,39.06,0,0,1-3.59,3.2,5.25,5.25,0,0,1-2.7.81c-3.16.1-6.32,0-9.49,0-3,0-3.52.6-3.89,3.61-.25,2-.48,4.07-.76,6.56-3.24-2-6.59-1.85-9.93-1.83-1.77,0-3,.58-3.72,2.3a29.91,29.91,0,0,1-1.63,3.49,3.46,3.46,0,0,0,.73,4.77c1,.86,1.77,1.85,2.84,3-.44,1-.9,2.09-1.37,3.15a3.06,3.06,0,0,0,.53,3.56c2.23,2.53,4.37,5.15,7.94,5.82,1.9.36,2.76,1.64,3.16,3.43s1.13,3.55,3.24,4.23c1.22.39,1.14,1.44.7,2.82-3.76-1.38-7.62-2.43-11.11-4.39-8.33-4.66-15.46-11-22.89-16.85a16,16,0,0,1-3.77-4.9A19.9,19.9,0,0,0,713.33,655c-1.13-.32-2.14-1-3.26-1.4-5-1.54-9-4.28-11.3-9.19a3.82,3.82,0,0,0-3.6-2.14,9.39,9.39,0,0,1-3.58-1.11c-2.88-1.52-5.67-3.21-8.5-4.83-1.06-.61-2.14-1.1-3.32-.3a3,3,0,0,0-1.14,3.15c.3,3.05.46,6.11.87,9.15a6.64,6.64,0,0,0,1.35,3.14c2.68,3.3,5.47,6.51,8.3,9.68a13.79,13.79,0,0,0,2.94,2.44,70.12,70.12,0,0,1,14.58,11.58,25.78,25.78,0,0,0,9.61,6.18c.92.38,2.13.52,2.58,2.29-1.77-.49-3.22-.88-4.67-1.3-3-.85-4.26,0-4.35,3.17-.05,1.88-.09,3.76,0,5.64a3.71,3.71,0,0,1-2.26,3.77c-.7-3.12-1.41-6-2-9a14.79,14.79,0,0,0-2.38-5.33,26.53,26.53,0,0,0-12.27-10.25,24.56,24.56,0,0,1-6.28-4.31c-3.93-3.28-8.31-6-12.56-8.92a6.37,6.37,0,0,0-2.52-.74c-3.61-.59-7.23-1.11-10.83-1.68a11.77,11.77,0,0,0-5.82.45c-11.59,4-23.22,7.79-34.83,11.67-3.36,1.13-3.47,1.3-3.5,4.84,0,2-.07,4,0,5.93A3.46,3.46,0,0,1,613,680.8c-4,2.92-7.86,6-11.85,8.9a5,5,0,0,0-2.33,4.2c0,1-.38,2-.37,2.94a16.72,16.72,0,0,1-5.51,12.92,38.59,38.59,0,0,1-9.31,6.66c-2.35,1.12-5.43.75-8.19.94a75.25,75.25,0,0,0-15.51,2.22,4,4,0,0,1-3.61-.63c-2.86-1.94-5.85-3.7-8.66-5.7a6.22,6.22,0,0,0-5.81-1.2,25.11,25.11,0,0,1-3.57.5c0-2.18-.2-4.23,0-6.25a61.4,61.4,0,0,1,1-6.14c.84-4.56,1.79-9.12,1.42-13.81a9.52,9.52,0,0,1,1.39-6.23c2.69-4,2.92-8.21,1.51-12.68a33.76,33.76,0,0,1-.75-4c4.28-2.07,8.44-4.1,12.62-6.07a3.74,3.74,0,0,1,1.71-.13,9.51,9.51,0,0,1,1.74.32,32.16,32.16,0,0,0,12.6.72c6.16-.78,12.41-.93,18.62-1.35,3.15-.21,3.85-.92,3.74-4-.23-6.42-.45-12.85-.82-19.26a9.3,9.3,0,0,0-1.22-3.84,120.24,120.24,0,0,0-11.22-16.36c-.67-.84-1.29-1.71-2.11-2.8,1.4-.45,2.5-.84,3.62-1.15,5.43-1.46,10.87-2.9,16.31-4.37a10.88,10.88,0,0,0,2.77-1c4.49-2.7,9-5.42,13.36-8.26a4.86,4.86,0,0,0,1.91-2.51c2-7,6.35-12.36,11.11-17.59,4.31-4.76,8.36-9.75,12.64-14.55a7.48,7.48,0,0,0,2-5.35c0-7,.19-14,.32-21.05,0-.67.11-1.34.2-2.38l4.21,1.66c.19,3.36.38,6.69.55,10,.14,2.86.18,5.73.4,8.59.2,2.54,1.14,3.26,3.68,3,3.24-.31,6.49-.62,9.72-1a11.29,11.29,0,0,0,3.11-.89,208.36,208.36,0,0,0,31.9-16.9c2-1.3,3.06-2.67,2.63-5.06-1.38-7.68.18-14.81,3.68-21.73,2.14-4.24,1.29-5.31-3.48-5.77-2.07-.2-4.12-.48-6.18-.73.33-3.2,1.71-5.15,4.39-6.24,2.38-1,4.76-1.94,7.16-2.85a3.25,3.25,0,0,0,2.39-3c.21-3,.61-5.9.82-8.85s-1.53-4.09-4.1-2.89-5.21,2.84-7.93,4c-3.43,1.45-7,2.61-10.65,3.95-2-2.59-3.76-4.91-5.45-7.32a5.58,5.58,0,0,1-.66-2.22c-.56-3.22-1.16-6.43-1.55-9.66a13,13,0,0,1,.26-4.36c.65-2.78,1.48-5.53,2.33-8.27a23.06,23.06,0,0,0-.45-14.76c-1.48-4.45-4.46-6.71-8.22-8.63a2.9,2.9,0,0,0-3.76.52,29.59,29.59,0,0,1-2.09,2.1,4.91,4.91,0,0,0-1.68,4.22c.07,4.05.1,8.1,0,12.15a13.62,13.62,0,0,1-.85,4.9c-3,6.81-4.21,14-4.84,21.29a17.24,17.24,0,0,0,2.9,10.64,40,40,0,0,0,4.37,5.61,12.12,12.12,0,0,1,3,12c-.37,1.42-.38,2.94-.7,4.38a44.19,44.19,0,0,1-1.69,6.24,8.52,8.52,0,0,0-.68,5.44c.33,1.33.35,2.75.65,4.09a4,4,0,0,1-2.33,4.9c-2.48,1.13-5.11,1.93-7.55,2.82a5.55,5.55,0,0,1-1.94-4.5,8.28,8.28,0,0,0-3.63-7c-.89-.62-1.57-1.51-2.43-2.18a10,10,0,0,1-3.42-4.72c-1.14-3.3-4.27-3.87-7-4.87-1.21-.45-2.18.62-2.74,1.78-1.68,3.46-3.44,6.89-5,10.41-1.33,3-2.26,3.42-5.2,2.17-.55-.23-1.08-.48-1.62-.72a5,5,0,0,1-3.31-5.09,38.93,38.93,0,0,0-1.61-12.85,15,15,0,0,1,0-6.73c.76-4.17,1.95-8.26,2.9-12.4a7,7,0,0,1,2.08-3.82c3.73-3.4,5.9-7.67,7.77-12.35a162.21,162.21,0,0,0,9-29.42,23.12,23.12,0,0,0,.43-5c-.1-4.64-.3-9.29-.57-13.92a5.52,5.52,0,0,1,1.38-4,74.64,74.64,0,0,1,9.09-9.72c4.6-4.06,9.09-8.23,13.56-12.42a5.58,5.58,0,0,1,4.78-1.52,51.46,51.46,0,0,1,14.3,3.61c3.49,1.36,7.07,2.51,10.56,3.89a5.81,5.81,0,0,0,4.86-.05c.8-.38,1.68-.59,2.48-1,4.41-2.08,8.4-1.12,12.18,1.58,2.66,1.89,5.29,3.82,8,5.59,1.62,1,2.67,2.23,2.57,4.27a22.29,22.29,0,0,0,.3,3.18c-1,.22-1.78.47-2.62.59-6.45.95-12.89,1.94-19.36,2.77-3.32.42-5.12,2.83-6.93,5.08-1.14,1.44-.15,3.33.49,4.8a7.35,7.35,0,0,0,5.8,4.82c5.41,1,10.69,2.46,15.35-2.29.68,1.13,1.1,1.76,1.45,2.43s.72,1.63,1.15,2.41c1.76,3.17,3.89,5.69,8.09,5a35.84,35.84,0,0,1,4.15,0c2.25-.11,3-.94,2.89-3.15-.13-1.77-.43-3.52-.69-5.61,1.28-.21,2.51-.38,3.74-.6,2.24-.4,2.78-.85,2.86-3,.33-8.1.55-16.2.84-24.3a3.42,3.42,0,0,0-1.91-3.39c-1.77-1-3.5-2.1-5.63-3.39l4.13-2.66c1.4,2,2.65,3.85,4,5.64.94,1.23,1.87,3,3.73,2.27,2.11-.82,4.46-1.47,5-4.46.78-4.6,1.42-9.1.57-13.81a18.88,18.88,0,0,1,1.89-11.78,82.58,82.58,0,0,0,3.57-8.77,11.32,11.32,0,0,1,3.5-5.36,14.59,14.59,0,0,0,1.91-1.86c1.21-1.36,1.33-2.54.11-3.94a14.31,14.31,0,0,0-3.53-3.06c-3.31-1.92-6.75-3.63-10.67-5.71a21.87,21.87,0,0,1,2.85-.85c5.31-.68,8.77-4.2,12.06-7.92,1.21-1.36,1-2.66-.29-3.92a14.39,14.39,0,0,0-1.61-1.31c-8-6.11-15.17-13.27-22.56-20.12a2.26,2.26,0,0,1-.75-1.66c.55.29,1.12.54,1.65.88,4.76,3,9.49,6.06,14.3,9a24,24,0,0,0,4.81,2.18c5.24,1.76,10.54,3.34,15.77,5.12a9.9,9.9,0,0,1,3.13,2.08,22.14,22.14,0,0,1,3,3.28c1.5,2,3.72,2.5,6,2.88a2.27,2.27,0,0,0,2.76-1.7c.39-1.51.57-3.07.83-4.6,0-.19-.08-.39-.07-.59.18-4.58-1.59-8.32-4.5-11.83-1.93-2.32-3.17-5.21-4.7-7.87-1.28-2.23-5.19-4.31-7.69-4a2.51,2.51,0,0,0-2.32,2.31c-.17,1.05-.37,2.1-.61,3.47l-3.49-1.16c-2.89-1-5.74-2.15-8.67-3a20.44,20.44,0,0,1-7-4.17c-3.69-2.95-5-7.17-7.16-11.23a32.83,32.83,0,0,0,4.48-1,23.39,23.39,0,0,0,3.62-2,6.82,6.82,0,0,0,3.26-6.54,5.62,5.62,0,0,0-4.52-5.23c-3.14-.8-6.18-2-9.34-3a10.16,10.16,0,0,1-.13-1.89,7.88,7.88,0,0,0-2.86-7.35c-.8-.73-1.4-1.68-2.17-2.43a9.57,9.57,0,0,1-3.34-7.18c0-3.18-.49-3.36-3.52-4.2-1.34-.36-2.71-.63-4-1.09-2-.73-2.55-1.65-2.14-3.79.55-2.85-.4-5.49-1.15-8.12-.21-.74-1.33-1.41-2.18-1.75-3-1.23-6.08-2.34-9.16-3.42a5.86,5.86,0,0,1-3.2-2.44c-1.39-2.16-3-4.2-4.37-6.35-1.2-1.83-.93-2.54,1.09-3.28a17.44,17.44,0,0,1,3.11-1c2.53-.41,4-2.1,5-4.18a6,6,0,0,0,.47-2.79,9.28,9.28,0,0,0-.66-2.88c-1.16-3-.46-6,.26-9,.63-2.59,1.19-5.2,1.83-7.78a5.19,5.19,0,0,0-.64-4,18.11,18.11,0,0,0-5.64-6.37,12.8,12.8,0,0,1-4.62-6c-1-2.55-2.35-5-3.44-7.55a8.11,8.11,0,0,0-2.87-3.25,15.13,15.13,0,0,0-11.6-3.29c-.87.12-1.8-.12-2.66,0-3.72.67-6.5-.74-8.61-3.74-.22-.32-.57-.55-.81-.86-3.3-4.45-7.34-7.58-13.13-8a8.29,8.29,0,0,1-3.17-1.53c-4.89-3-9.73-6.06-14.66-9a14.92,14.92,0,0,0-4.63-1.78c-16.38-3.22-32.77-6.34-49.16-9.53a15.18,15.18,0,0,1-3.61-1.26c-5-2.37-10-4.73-14.93-7.25a11.76,11.76,0,0,0-6.54-1.35c-2.26.19-4.54.13-6.81.29a3.19,3.19,0,0,1-2.85-1.19c-2.13-2.46-4.32-4.88-6.56-7.4.7-1.3,1.54-2.11,3-1.39,4.55,2.19,9.4,1.91,14.24,1.86,1.58,0,3.16-.07,4.74,0,2.64.14,5.09.06,6.87-2.42a4.39,4.39,0,0,1,2.62-1.2,9.47,9.47,0,0,0,6.75-4.8,4.52,4.52,0,0,1,.53-.71c1.44-1.67,2.45-3.43.76-5.83a13.4,13.4,0,0,1,2-.28c13.23.64,26.47,1.15,39.69,2,6.3.41,12.56,1.39,18.82,2.31,2.31.34,4.08,0,5.39-2a1.3,1.3,0,0,1,.19-.22c5.37-6,5.37-6,12.87-8.22a8.28,8.28,0,0,1,2.32-.38q12.3-.1,24.61-.13a7.31,7.31,0,0,1,1.1.24c-1.68,1.45-3.18,2.54-5.26,2.69-3.64.27-7.28.84-10.92.91-4.64.1-8.88,1.6-13.26,2.82-5,1.39-8.12,5.12-11.77,8.2-1.62,1.38-1,3.49,1.06,4.18a16.66,16.66,0,0,0,4.64.84c4.94.2,9.88.33,14.82.31a7.67,7.67,0,0,0,3.6-1,15.33,15.33,0,0,1,10.8-1.9c5.83,1.06,11.69,1.92,17.55,2.8a12.77,12.77,0,0,1,6.28,2.36A36.68,36.68,0,0,0,722.09,115a338.71,338.71,0,0,1,33.7,13,20.69,20.69,0,0,0,6.89,1.41,20.75,20.75,0,0,1,8,2.1,16.88,16.88,0,0,0,1.9.84c3.54,1.23,6,.43,8.1-2.64,1.13-1.63,2.2-3.29,3.37-4.88a3.59,3.59,0,0,0,.32-4.13c-1.15-2.28-2.18-4.62-3.4-7.27.87-.11,1.55-.41,2.08-.23,6.5,2.2,13.26,1.86,20,2.09a23.94,23.94,0,0,1,7.49,1.75l-2.61,4.38c-.46.76-1,1.5-1.37,2.29-1.28,2.42-.44,4.13,2.27,4.31,3.15.2,6.32.11,9.47.33a19.66,19.66,0,0,1,5.18,1q34.08,12.06,67.34,26.25c3.94,1.69,4,1.66,8,.1,2.14,1.38,4.43,2.75,6.59,4.3a5.14,5.14,0,0,1,1.73,2.3,30.6,30.6,0,0,0,10.28,13.8c1.16.92,2.14,2.18,3.43,2.8,5.2,2.47,9.31,6.29,13.3,10.28,1.59,1.59,3.32,2.49,5.53,2.06,1.48-.29,2.9-.85,4.75-1.41,3.33,3,7,6.28,10.63,9.63,9.36,8.66,18.85,17.18,28,26.07a399.3,399.3,0,0,1,35.68,39.65c1.76,2.25,3.61,4.45,5.45,6.64,10.86,12.9,19.88,27.06,28.47,41.51,5.75,9.69,11.58,19.33,17.18,29.1,7.51,13.13,14.06,26.75,20.59,40.39,10.78,22.52,18.82,46.05,26.22,69.83.17.54.27,1.11.45,1.89-1.63.05-3.43-1.2-4.5.45a21.94,21.94,0,0,0-1.66,4.29l-2.45.14c-1.71-4.59-5-8-7.95-11.49-1.53-1.79-3.88-3-6-4.13a2.17,2.17,0,0,0-3.18,2c.35,4.19-.89,7.46-4.28,10-.51.39-.47,1.6-.56,2.44a2.12,2.12,0,0,0,.38,1.11c2.68,5,2.85,10.46,3.11,15.86a49.8,49.8,0,0,1-.93,9.7c-.4,2.65-.33,5,1.32,7.32a6.16,6.16,0,0,1,.78,3.6c-.11,2.66-.45,5.32-.8,8a3.71,3.71,0,0,0,1.27,3.73c3.23,2.52,4.64,5.91,5.3,9.87.58,3.5,1.73,6.9,2.33,10.4a50.22,50.22,0,0,1,.46,7.37c.09,3.66.15,7.32.08,11a6.6,6.6,0,0,0,1.94,5.06q4,4.16,7.77,8.56a6.14,6.14,0,0,1,1.55,3c1,9,1.82,18.09,2.7,27.14a9.59,9.59,0,0,1-.21,1.59c-1-.67-1.85-1.12-2.59-1.67-3.48-2.62-7-5.21-10.37-7.92a7,7,0,0,0-4.89-1.61c-3.16.11-6.33,0-9.49.06a6.48,6.48,0,0,1-4.4-1.33c-1.4-1.09-3-2-4.37-3.06a3.31,3.31,0,0,0-4.1-.19c-2.79,1.67-5.62,3.25-8.47,4.87-1.26-.93-2.33-1.8-3.48-2.55-1.68-1.09-2.92-.79-4,.89a6.38,6.38,0,0,0-.79,1.59c-1,3.06-3.18,4.68-6.07,5.92-5.71,2.44-11.28,5.25-17,7.81a5.82,5.82,0,0,0-3.33,3.5c-3.65,9.79-9.69,18.31-14.54,27.47a3,3,0,0,1-.69,1c-3.82,3-7.62,6-11.5,8.87a3,3,0,0,1-2.25.3c-5.9-1.51-9.9,2.19-14.19,5.08a7.16,7.16,0,0,0-1.31,1.21,37,37,0,0,1-15.91,10.41,34.07,34.07,0,0,1-5.4,1.5,5.34,5.34,0,0,1-2.78-.59c-4-1.78-8-3.52-11.8-5.54a5.07,5.07,0,0,0-6.21.63c-2.79,2.2-5.82,4.09-8.68,6.2a7.23,7.23,0,0,1-4.11,1.41c-2.67.14-5.32.46-8,.58a3.61,3.61,0,0,0-3.32,2.06c-.78,1.48-1.71,2.89-2.47,4.39-1,2-.67,2.91,1.19,4.23,2.68,1.9,5.43,3.14,8.82,1.92a15.92,15.92,0,0,1,4.08-.69c3.57-.29,7-.12,10.34,1.63,4.81,2.5,9.88,4.52,14.8,6.81a7.77,7.77,0,0,0,4.55.6,14.55,14.55,0,0,0,9.86-5c1.41.56,2.7,1,3.93,1.59a7.66,7.66,0,0,0,4.85.46c3.34-.54,5.32-2.26,6.93-5.2,3.49-6.42,7.35-12.63,11.27-19.29,1.59,1.58,3.09,2.92,4.4,4.43a5.14,5.14,0,0,0,4.41,1.9c2.67-.1,5.34,0,8,0,1,0,1.92.1,3.13.17.19,3.51.38,6.84.54,10.17a40.91,40.91,0,0,0,.14,4.15c.81,5.35-.34,10.3-2.4,15.24a124.28,124.28,0,0,1-6,13.18c-4,7.06-7.94,14.13-11.67,21.32A46.7,46.7,0,0,0,995,729a60.14,60.14,0,0,1-9.81,19.45c-7,9.36-14,18.65-20.94,28-2.88,3.9-5.47,8-8.29,11.93-1.25,1.74-2.73,3.32-4.48,5.43-1.2-3.15-2.33-5.71-3.15-8.38a12.21,12.21,0,0,0-4.25-5.82c-6.47-5.48-13.8-9.52-21.41-13.11-4.6-2.16-7.77-6-11.37-9.38-1-.91-1.31-2.62-1.71-4a5,5,0,0,0-3.38-3.78,7.11,7.11,0,0,1-1.33-.65,59.59,59.59,0,0,0-17.46-6.35,21.08,21.08,0,0,1-4.17-1.46c-10-4.39-19-10.53-28.09-16.47a40.39,40.39,0,0,1-6-5.25c-1.64-1.61-3.18-2-5.27-.79-2.39,1.37-4.95,2.45-7.42,3.7s-2.64,2-1.75,4.73a18.93,18.93,0,0,0,6,8.89c5.6,4.7,11,9.64,16.36,14.62,2.1,2,4.28,3.51,7.17,3.78a3.55,3.55,0,0,1,3.47,3c.6,2.65,2.35,3.95,4.91,4.43,5.65,1.07,10,4.16,13.86,8.37,6.18,6.66,12.85,12.86,19.19,19.38,3.3,3.39,6.31,7.06,9.5,10.56a25.22,25.22,0,0,0,2.86,2.5,12.27,12.27,0,0,0,1.53.9c8.13,4.59,8.13,4.64,17.25,5.22a10,10,0,0,0,4-.87,5.3,5.3,0,0,1,4-.14c1.46.57,3.07.79,4.52,1.39,3.41,1.41,7,1.23,10.52,1.15a6.23,6.23,0,0,0,2.27-.54c3.1-1.3,6.15-2.71,9.26-4a3.52,3.52,0,0,0,2.44-3c0-.29.2-.58.2-.86.09-4.85,2.48-8.31,6.35-11,6.31-4.4,10.55-10.55,14.27-17.14a33.16,33.16,0,0,1,3-3.88l.71.2c.44,2.76.78,5.54,1.35,8.27a15.49,15.49,0,0,1-.7,8.39c-4.33,12.73-7.87,25.68-11.07,38.73a143.2,143.2,0,0,1-13.29,35.08c-3.36,6.14-6,12.68-8.95,19-.66,1.42-1.19,2.85-2.62,3.83a8.17,8.17,0,0,0-1.87,2.63A275,275,0,0,1,939.11,918c-2.43,3-5.07,5.8-7.69,8.63a5.67,5.67,0,0,0-1.82,3.6,6.27,6.27,0,0,1-.31,1.45,13.1,13.1,0,0,0,1.83,12.07,5.46,5.46,0,0,1,.9,4.51,22.32,22.32,0,0,0,1,12,13.08,13.08,0,0,1-.06,8.09c-1.37,4.64-2.53,9.34-3.62,14.06a4.85,4.85,0,0,1-2.59,3.29c-7.17,4.35-14.41,8.62-21.31,13.36-3.55,2.44-6.53,5.73-9.59,8.8a5.94,5.94,0,0,0-1.48,3.43c-.44,4.74-2.72,8.08-6.54,10.94-5.46,4.07-10.47,8.73-15.75,13.05-2.93,2.39-4.64,5.58-6.28,8.85a1.84,1.84,0,0,0-.18.56,15.24,15.24,0,0,1-9,11.29c-1,.46-1.79,1.26-2.75,1.75-4.43,2.29-7.57,6-10.57,9.78A7.57,7.57,0,0,0,842,1070.32ZM558.75,725.24a57.39,57.39,0,0,1,12-2.41c4.33-.34,8.66-.68,13-1.17a8.77,8.77,0,0,0,3.52-1.26c3.22-2,6.35-4.24,9.62-6.45v4.64a10.9,10.9,0,0,1-1.23.65c-7.13,2.59-14.22,5.32-21.43,7.67a70,70,0,0,1-10.13,2,2.81,2.81,0,0,1-1.86-.57C561.17,727.51,560.19,726.53,558.75,725.24Zm61-47.28a52.29,52.29,0,0,1,0-6.16c.91-.36,1.79-.75,2.7-1.06,10.49-3.5,21-7,31.49-10.44a11,11,0,0,1,4.31-.42c3.24.32,6.47.81,9.67,1.39a9,9,0,0,1,3.23,1.33c3.05,2,6,4.15,9,6.24a3,3,0,0,1,.72.52c2.92,3.76,7.33,5.23,11.31,7.35a18.76,18.76,0,0,1,4.31,3.48c3.66,3.66,4.71,8.31,5.55,13.1.37,2.05-.12,2.6-2.32,2.71-5.23.25-10.45.61-15.69.68-2.91,0-5.11,1.45-7.22,3a2.36,2.36,0,0,0,1,4.28,7.93,7.93,0,0,1,4.91,2.91,4.06,4.06,0,0,0,1.93,1.27c3.65.79,7.23,2.11,11.07,1.7,1.47-.16,3-.08,4.44-.15,2.86-.13,3.65-1,3.41-3.87,0-.39-.08-.78-.18-1.79,2.5,1,3.77-.33,5-1.81,1.61-1.88,3.24-3.74,5-5.5a5.46,5.46,0,0,0,1.69-4.53c-.1-1.26,0-2.54,0-4.18,1.81.54,3.28,1,4.77,1.42,2.85.77,4.11-.15,4.19-3.11,0-1.67,0-3.36,0-5a3,3,0,0,0-2-3c-.37-.15-.71-.36-1.08-.49a33.2,33.2,0,0,1-13.85-9.3A46.76,46.76,0,0,0,697,660.79a24.85,24.85,0,0,1-6.36-5.69,49,49,0,0,0-4.28-4.92c-2-1.92-2.34-4.17-2-7.13,2,1.11,3.75,2.13,5.55,3.1.86.47,1.79,1.22,2.65,1.17,2-.11,2.9,1,3.62,2.47a14.26,14.26,0,0,0,8.59,7.15c3.62,1.29,7.06,3.06,10.62,4.54a6.41,6.41,0,0,1,3.36,2.72,50.07,50.07,0,0,0,15.39,16.14c3,2.08,5.79,4.46,8.71,6.66,6.66,5,14.45,7.63,22.18,10.33,2.43.85,3.83-.14,3.93-2.7.08-2.18,0-4.36,0-6.53a3.07,3.07,0,0,0-2.19-3.43,4,4,0,0,1-2.86-3.42c-.46-2.79-2.19-4.17-4.82-4.9-2.27-.63-4.58-1.4-5.82-4,.21-.55.46-1.28.76-2,1.28-3,1.23-3.28-1.1-5.71l-2.16-2.26c.23-1.84,1-2.73,2.78-2.46a31.21,31.21,0,0,1,4.28.87c1.31.41,2.52,1.13,3.81,1.63,2.46,1,3.83.21,4.2-2.37.31-2.15.44-4.32.67-6.48.06-.57.17-1.14.31-2h6.26c5.07,0,5.07,0,8.82-2.24,0,.31.16.64.06.86-1.59,3.36-1.86,7-2.7,10.59-1,4.06.76,7.57,2,11.18a3.13,3.13,0,0,0,2.31,1.49,10,10,0,0,1,7.81,4.07,2.7,2.7,0,0,0,3.47.8,7.43,7.43,0,0,0,.82-.34c4.56-2.77,9.43-2.3,14.67-1.27L821,706.17c-1.13.46-2,.86-2.9,1.19-8.55,3.07-17,6.35-25.68,9.12-5.33,1.72-10.91,2.67-16.39,3.94-3.27.75-6.55,1.5-9.84,2.16a14.22,14.22,0,0,0-6.55,3.25c-3.6,3.09-7.12,6.27-10.74,9.34-1.45,1.23-2,2.53-1.32,4.41a39.11,39.11,0,0,1,1.12,4.17,6.11,6.11,0,0,1-6.15,2.26,13.18,13.18,0,0,0-7.28.68,6.93,6.93,0,0,1-3.18.31c-4.22-.44-8.43-1.08-12.65-1.49-1.57-.15-2.61-.66-3.1-2.18-.54-1.69-1.83-2.37-3.47-2.84-8.07-2.31-16.14-4.63-24.15-7.12-3.86-1.19-7.62-2.72-11.38-4.22-1.94-.77-2.3-2-.77-3.31,2.28-2,2.53-4.15,1.88-6.9a80.56,80.56,0,0,1-1.37-8.78,4,4,0,0,0-3.23-3.69,17.91,17.91,0,0,0-7.86-.73c-12,1.56-23.92,3-35.86,4.56-5.28.71-10.5,1.86-15.77,2.62-3.88.55-7.81.8-12,1.22,0-2.95-.17-5.6,0-8.21.27-3.34.91-6.65,1.27-10a4.25,4.25,0,0,1,1.91-3.15c3.58-2.64,7-5.49,10.68-8C618.8,683.09,620.09,681.11,619.7,678Zm78.44,26.56a18,18,0,0,1-12.55-2.24c3.94-1,7.92-.77,12.16-1.13C697.91,702.49,698,703.35,698.14,704.52ZM817.5,587a3.41,3.41,0,0,0-2.92-2.56c-2.72-.48-5.43-1.05-8.11-1.71a34,34,0,0,1-4-1.56l7.91-9.33a17.12,17.12,0,0,1,.67,2c.34,1.84.74,3.69.91,5.55.21,2.3,1.37,3.45,3.58,4.07,3.33.92,6.52,2.33,9.86,3.17,5.38,1.36,10,4.22,14.61,7a6.15,6.15,0,0,1,2.88,6.29,2.78,2.78,0,0,1-1.67,2.25c-2.24,1-4.38,2.37-6.72,3a59.82,59.82,0,0,0-16.8,7.93c-3.72,2.47-6.81,6-9.92,9.26-3.25,3.44-6.19,7.17-9.56,11.12l-14.76-34.78,4.89-6.68a19.22,19.22,0,0,1,2.91,2.53c1.6,2.11,3.63,2.59,6.19,2.63,4.22.07,8.46.51,12.66,1,2.15.25,3.91,0,5.24-1.81a1.45,1.45,0,0,1,.21-.22C819.76,592,819.47,593.2,817.5,587Zm-23.59,50.1L787.17,642c-.42-.82-.8-1.46-1.07-2.13-.82-2-1.46-4.11-2.42-6-2.44-4.88-3.19-10.08-3.34-15.45-.07-2.36-.39-4.72-.44-7.08a44.3,44.3,0,0,1,.35-4.59l1-.14C785.74,616.55,789.89,626.7,793.91,637.1Zm21.49,38.45c5.54-2.09,10.69-4.06,15.86-6,3.11-1.15,6.54-1.56,9.35-4.56.41,2.38.75,4.17,1,6q1.4,8.63,2.78,17.25a3.34,3.34,0,0,1,.13.87c-.81,5.14-1.69,10.28-5.28,14.36a4,4,0,0,1-2.56,1.16c-3.44.14-6.89.06-10.78.06ZM668.83,440.91c0-1.06-.19-2.23,1.24-2.81a5.94,5.94,0,0,1,4,3.74,16.72,16.72,0,0,1,.65,13.48c-.43,1.1-.6,2.3-1,3.4a22.35,22.35,0,0,0-.87,14.48,10.83,10.83,0,0,1,.34,2.35,17.59,17.59,0,0,0,4.92,11.7,4.13,4.13,0,0,1,.65,1,3.08,3.08,0,0,1,.12.82c-2.75.63-5.51,1.33-8.3,1.87a2.16,2.16,0,0,1-1.75-.66c-2.27-2.83-4.93-5.48-5.36-9.35a25.47,25.47,0,0,1-.2-4.36,64.77,64.77,0,0,1,4.89-19.74,10.81,10.81,0,0,0,.62-3.75C668.88,449,668.82,445,668.83,440.91Zm2,89.61a4,4,0,0,0,.35-2.54,49.84,49.84,0,0,0-.86-5.86,7.05,7.05,0,0,1,.49-4,55.53,55.53,0,0,0,1.63-6.24c.41-1.83.52-3.73,1-5.53a12,12,0,0,0-.15-7.83,19.64,19.64,0,0,1-.57-2.63c9.83-2.61,19.95-4.05,28.86-9.28.73,3.2.68,3.34-1.82,4.37-2.19.91-4.44,1.68-6.56,2.72a6.26,6.26,0,0,0-2.57,2.23c-1.58,2.61-3,5.34-4.36,8.08-1.26,2.5-.5,4,2.26,4.41s5.66.65,8.82,1c-1,2.4-1.74,4.63-2.75,6.74a13.63,13.63,0,0,0-1.28,7.75c.24,2,.15,4,.38,5.91s-.44,3-2.1,4.06a210.24,210.24,0,0,1-25,13.47,31.11,31.11,0,0,1-13.7,3c-.21-3.52-.42-7-.62-10.48,5-1,10-1.85,14.19-4.61A19.65,19.65,0,0,0,670.83,530.52Zm.48-428.72H660.83c-.05-.18-.1-.37-.16-.55.41-.34.76-.83,1.23-1C663,99.88,670,101.23,671.31,101.8ZM945.64,802.41c-2.35-1.13-4.26-.46-6.26.25a14.92,14.92,0,0,1-4.3.53c-5.43.22-9.86-2.43-14.21-5.18a11.65,11.65,0,0,1-2.31-2.24c-2.44-2.71-4.72-5.58-7.28-8.18-8.54-8.66-17.2-17.19-25.75-25.84a11.07,11.07,0,0,0-5.21-3.18c-1.81-.46-3.56-1.19-5.37-1.65a3.51,3.51,0,0,1-2.81-2.68c-.18-.67-.54-1.28-.77-1.93a3.13,3.13,0,0,0-2.71-2.41c-4.91-.35-8.21-3.43-11.56-6.55-4.7-4.38-9.53-8.63-14.35-12.87a7.07,7.07,0,0,1-2.55-4.54l5.47-2.71a10.29,10.29,0,0,1,1.24.84c8.11,7.21,17.51,12.46,26.88,17.76.86.48,1.81.82,2.65,1.33a46.68,46.68,0,0,0,15.24,5.49c4.35.89,8,3.29,11.93,5.15a3.7,3.7,0,0,1,1.57,2.32c.65,2.75,2.4,4.6,4.33,6.52a50,50,0,0,0,15.72,10.88c6,2.57,11.09,6.44,16.06,10.51a8.33,8.33,0,0,1,2.06,2.77c.73,1.51,1.18,3.14,1.8,4.71,1.08,2.75,2.38,5.45.69,8.46A7.12,7.12,0,0,0,945.64,802.41Zm105.06,92a16.67,16.67,0,0,1-2.43,5.65c-10.68,16.1-22.92,31-35.65,45.45q-14.79,16.79-30.71,32.55a498.93,498.93,0,0,1-85.7,68.57c-7.85,4.95-15.52,10.22-23.55,14.87-8.2,4.74-16.73,8.91-25.12,13.32a2.91,2.91,0,0,1-.94.14,7.94,7.94,0,0,1,1.94-6,32.77,32.77,0,0,1,8-7c2.88-1.73,5.58-3.75,8.46-5.48a7.36,7.36,0,0,0,3.17-4.08c1.26-3.41,2.1-7,4.36-10a21.36,21.36,0,0,1,3.11-3.52q9.81-8.37,19.77-16.56A6.23,6.23,0,0,0,898,1018c.35-5.06,2.82-8.88,6.77-11.9,2.66-2,5.11-4.39,7.94-6.17,5.76-3.63,11.65-7.07,17.61-10.37a6.64,6.64,0,0,0,3.6-4.65c1.41-6,3-11.88,4.58-17.79a10,10,0,0,0,0-5.8c-.29-.94-.42-1.94-.74-2.87a20.59,20.59,0,0,1-.59-10.53,7.67,7.67,0,0,0-1-5.66,13.53,13.53,0,0,0-.69-1.31c-2.4-3-1.58-6.34-.84-9.61a4,4,0,0,1,1.07-1.72c10.32-10.89,18.84-23.11,26.55-35.92a28.1,28.1,0,0,1,7.83-8.57c11.53-8.34,22.87-16.93,33.57-26.34a363.42,363.42,0,0,0,26.31-26.06c8.49-9.13,16.21-18.9,23.82-28.76,2.65-3.43,4.86-7.2,7.27-10.82.27-.39.59-.76.88-1.14l.74.17c0,1.45,0,2.9,0,4.35-.13,15.82-.6,31.64-2.22,47.37a279.12,279.12,0,0,1-6.3,35.57Q1052.35,886.93,1050.7,894.45Zm87.14-272.2c-.34,7.8-.59,15.61-1.16,23.4-.42,5.9-1.34,11.78-1.94,17.67-1.49,14.75-3.71,29.4-6.32,44-1.07,6-2.72,11.93-4.16,17.88a539.43,539.43,0,0,1-20.67,67c-8.3,21.56-17.38,42.84-28.47,63.17-4.83,8.84-10.07,17.45-15.14,26.16a3,3,0,0,1-1.38,1.26c.78-3.5,1.65-7,2.31-10.51,2.35-12.52,4.86-25,5.34-37.8.42-11.55,1.09-23.1,1.45-34.65.14-4.63-.19-9.28-.4-13.92a7.12,7.12,0,0,1,1.19-4.45c2.87-4.38,5.55-8.88,8.44-13.24,14.75-22.23,26.71-45.94,36.92-70.52a423.62,423.62,0,0,0,14.62-42.88c3.47-11.78,5.63-23.82,8.26-35.78l.75-3.4.37.08C1137.85,617.93,1137.93,620.09,1137.84,622.25Z"/><path d="M867.52,551a9.11,9.11,0,0,1,1.55,1.79,15.23,15.23,0,0,0,12.39,7.42,7.8,7.8,0,0,1,4.87,2.52,64.37,64.37,0,0,0,7.77,6.84c1.9,1.29,3.54,2.29,3.66,4.8a3.8,3.8,0,0,0,1,1.79c4,5.14,8.08,10.24,12.06,15.41a3.63,3.63,0,0,0,4.39,1.38c3.32-1,6.71-1.65,10-2.63a9.08,9.08,0,0,0,3.29-1.84c3.6-3.08,7.18-6.2,10.61-9.47a75.39,75.39,0,0,0,5.26-6,2.74,2.74,0,0,0,.43-3c-1-2.46-1.94-4.93-3.79-7a97,97,0,0,1-6.84-8.19c-2.24-3.11-4.89-5-8.87-4.76a5.34,5.34,0,0,1-4.62-2.21,20.07,20.07,0,0,0-10.06-6.44,6.86,6.86,0,0,1-3.94-2.93,10.78,10.78,0,0,0-4.95-4.07,31.62,31.62,0,0,1-3.41-1.79,7.15,7.15,0,0,0-4.81-1,32.79,32.79,0,0,1-4.1,0V524.8l5.21-2.29c1.18-.51,2.22-1.36,1.88-2.67-.79-3.08-1-6.52-4.79-7.92a18.52,18.52,0,0,1-4.94-2.65c-3.43-2.71-6.82-1.9-10.23-.22a15.87,15.87,0,0,0-2.86,2.07c-1.83,1.51-3.55,3.16-5.42,4.6a6.07,6.07,0,0,0-2.52,4.77c-.19,2.78.13,5.82-2.72,7.68a.4.4,0,0,0-.15.26c-.71,3.34-2,6.59-1.48,10.14A19.27,19.27,0,0,0,867.52,551Zm1.58-21.36a4.05,4.05,0,0,0,1.11-2.91c-.38-5.15,2.13-8.58,6.19-11.21.5-.32.89-.79,1.37-1.13,2.05-1.44,4.09-2.26,6.5-.59,1.45,1,3.15,1.65,4.68,2.55a20.67,20.67,0,0,1,2.34,2c-2.07.93-3.39,1.59-4.76,2.1a3.31,3.31,0,0,0-2.45,3.58c.1,3.26,0,6.53.14,9.79.1,2.76.87,3.4,3.69,3.35A8.28,8.28,0,0,0,890,537c3.91-1.12,7.18.47,10.28,2.47a12.82,12.82,0,0,1,3.09,3.1,8.08,8.08,0,0,0,4.21,3.09c.37.12.72.32,1.1.44a18.42,18.42,0,0,1,9,5.93,7.31,7.31,0,0,0,6.14,3,7.71,7.71,0,0,1,6.92,3.67c2,2.82,4.41,5.33,6.6,8a21.21,21.21,0,0,1,1.59,2.47,2.2,2.2,0,0,1-.34,3c-1.17,1.21-2.23,2.51-3.46,3.64-3,2.75-6,5.43-9.07,8.1a6.37,6.37,0,0,1-2.16,1.51c-3.11.91-6.27,1.65-9.5,2.48-3.83-4.89-7.61-9.58-11.22-14.39-.71-1-.69-2.43-1.17-3.6-.39-.95-.83-2.28-1.6-2.6-4-1.65-6.86-4.68-9.77-7.59a15.1,15.1,0,0,0-9.55-4.75,9.17,9.17,0,0,1-7.09-4.21,23.39,23.39,0,0,0-3.29-3.81,12.87,12.87,0,0,1-4-8C866.28,535.44,866.24,532.22,869.1,529.62Z"/><path d="M324.61,476.65a22.85,22.85,0,0,0-5.28-.3c-4.51.38-9,.9-13.5,1.48A10,10,0,0,0,302,479a35.55,35.55,0,0,0-14.19,17c-.88,2.09-.28,3.38,1.93,4.07a37.08,37.08,0,0,0,4.3,1.09c3.27.63,6.24,1.64,7.92,4.9a2.74,2.74,0,0,0,3.29,1.39c3.55-.84,7.14-1.55,10.63-2.61a4.79,4.79,0,0,0,2.22-7.57c-2.05-2.27-2.39-5.07-3.17-7.93.94-.35,1.75-.67,2.58-.95,2.06-.68,4.12-1.36,6.19-2a2.93,2.93,0,0,0,2.29-2.43c.22-1.47.45-2.93.59-4.4S326.11,476.88,324.61,476.65Zm-10.84,7.53c-.84.28-1.71.48-2.54.8-1.89.74-2.5,1.69-1.89,3.66,1.16,3.82,1.62,7.89,4.15,11.44l-7.83,2c-2-1.32-2.53-4-5-4.57-2.19-.48-4.35-1.06-6.77-1.66,1.06-2.53,1.94-4.77,3.84-6.45s3.9-3.6,5.93-5.31A4.71,4.71,0,0,1,306,483c4.85-.49,9.72-.87,14.67-1.12Z"/><path d="M557.28,576.28c2.19-5.08,4.44-10.13,6.83-15.12a4.45,4.45,0,0,0-.47-5.19c-.78-1-1.4-2.15-2.1-3.22-1.78-2.74-4.2-3.71-7.3-2.81-2.46.72-4.94,1.44-7.31,2.4a5.44,5.44,0,0,0-2.59,2.16c-2.19,3.93-4.82,7.76-4.22,12.64,0,.08-.08.17-.25.52l-1.14.41c-4.6,1.59-4.6,1.59-5.34,6.54a2.77,2.77,0,0,0-.16.87c.12.66.13,1.57.56,1.91,2.16,1.67,4.3,3.73,7.25,3.5,4.12-.32,8.21-1.06,12.32-1.53A4.51,4.51,0,0,0,557.28,576.28Zm-6.52-1.58c-3,.29-6.07.69-9.11,1-1.28.13-2.25-.41-3.27-2,1.44-.52,2.52-.92,3.61-1.29,3.14-1.07,3.65-1.43,3.37-4.61-.32-3.59.94-6.56,2.69-9.46a3.88,3.88,0,0,1,1.64-1.55c1.73-.7,3.55-1.2,5.33-1.77a2.08,2.08,0,0,1,2.53.91c1.47,1.88,1.91,3.58.66,5.89-1.86,3.47-3.35,7.15-4.91,10.77A2.91,2.91,0,0,1,550.76,574.7Z"/><path d="M126.2,630.45c1.13,0,2.27,0,4.1,0-2.48,2.09-2.45,4.25-2.35,6.58.22,5.58,3.25,9.5,9.19,10.55,1.76.31,2.56-.06,3.33-1.65a11.81,11.81,0,0,0,.8-6.93c-.67-5.09-3.07-8-8-9.37-.46-.13-.93-.22-1.38-.33,0-4.06,1-7.92.08-11.9-1.12-4.7-1.8-9.5-2.84-14.23a14.11,14.11,0,0,0-1.86-4.25c-1.19-1.92-2.62-3.68-4-5.57a41.78,41.78,0,0,1,2.9-4.23c1.65-1.88,1.86-4,1.62-6.34a54.42,54.42,0,0,1-.31-8.56c.22-4,.7-8.07,1.22-12.09a11.56,11.56,0,0,0-.57-4.92,49.27,49.27,0,0,1-2.34-9.14,103,103,0,0,0-3.91-18.82,14.14,14.14,0,0,0-1.38-3.57c-2.89-4.59-6-9.07-8.85-13.67a14.86,14.86,0,0,0-6.32-5.18c-1.73-.89-6.7.86-7.53,2.61a2.51,2.51,0,0,0-.2.86c-.15,3.35-.58,6.76,2.56,9.23a12.61,12.61,0,0,1,2,2.22c2.68,3.42,5.6,6.72,6.91,11a108.48,108.48,0,0,1,3.42,12.84c1.12,6.24.13,12.42-2,18.36a10.12,10.12,0,0,0-.06,7.15c2.07,5.86,3.88,11.81,5.78,17.74.19.6.24,1.25.42,2.17-2.66-.38-4.39,1-6.08,2.36s-1.9,2-1,4.1c4.38,10.26,8.82,20.5,13.21,30.76A3.28,3.28,0,0,0,126.2,630.45Zm7,4.92c2.59,1.18,3.2,2.5,2.87,6.48C133.18,640.25,133.09,637.91,133.16,635.37Zm-17.58-65.08a7.56,7.56,0,0,1,0-5.44,39.06,39.06,0,0,0,2.31-14c-.1-12.18-3.74-23.1-11.8-32.4-.9-1-1.79-2.11-2.7-3.15s-1.06-2-.1-3.75c1.21.78,2.49,1.18,3.08,2.05,3.46,5,7.38,9.91,9.94,15.4a47.12,47.12,0,0,1,3.91,15.75,48.68,48.68,0,0,0,2.86,13.58,10.09,10.09,0,0,1,.44,4.32c-.36,4.43-1,8.84-1.3,13.28a52.37,52.37,0,0,0,.43,7.38,3.12,3.12,0,0,1-1.53,3.43c-.32-.84-.66-1.61-.92-2.42C118.67,579.67,117.2,575,115.58,570.29Zm5,27.9a20.15,20.15,0,0,1,4.54,10.38c.43,3.62,1.38,7.17,2,10.77a44.88,44.88,0,0,1,.28,4.65c-1.7-1.68-11-22.58-12.42-27.64C117.31,596,119,596.24,120.56,598.19Z"/><path d="M110.31,587.48c-.33-1.46-.7-3.29-1.18-5.09-.95-3.53-3.64-5.71-6.34-7.81a9.07,9.07,0,0,0-2.75-1A2.43,2.43,0,0,0,97,574.65a5.19,5.19,0,0,0-.89,4.47c1.16,3.86,2.22,7.75,3.42,11.59.24.79.75,1.85,1.4,2.1,2.26.87,4.74,2.18,7.07,1.12s1.7-3.76,2.28-5.78C110.29,588.06,110.28,588,110.31,587.48Zm-6.13,1L102.29,582c2.46,1.58,2.48,4,2.69,6.27Z"/><path d="M998.43,917.38c-2.79-2.63-3.73-2.6-6.1.58a104,104,0,0,1-10.75,12.22c-2.82,2.76-5.61,5.56-8.31,8.45a42.56,42.56,0,0,1-9.78,8.06c-3.77,2.17-5.46,6.14-7.94,9.42a2.84,2.84,0,0,0-.28,1.43c-.52,8-1,16-1.54,24.13-.05,2.56,1.31,3.65,3.9,2.87,1.32-.4,2.65-.83,3.92-1.35,3.29-1.36,6.6-1.91,10.07-.71,2,.7,3.52-.06,5-1.57,3.65-3.78,3.77-3.76,1.18-8.17a3.86,3.86,0,0,1,.3-4.84c7.85-10.9,15.53-21.92,23.42-32.79a9.64,9.64,0,0,0,1.93-7.93C1002.44,921.39,1002.64,921.35,998.43,917.38Zm-1,14.42c-8,11.28-15.94,22.57-24,33.77a7.83,7.83,0,0,0-.61,8.79c.3.61.62,1.21,1.12,2.19-.85.28-1.61.83-2.15.66-4.12-1.27-8-.31-11.85,1.09-.16.05-.38-.06-.79-.12.1-2.22.18-4.46.3-6.71.22-3.74.37-7.49.74-11.22a9.9,9.9,0,0,1,1.34-3.79,20.45,20.45,0,0,1,7.5-7.36,28.61,28.61,0,0,0,5.25-4.27q8-7.94,15.78-16c2-2,3.7-4.33,5.69-6.69C998.48,924.53,999.29,929.24,997.47,931.8Z"/><path d="M539.94,446.21a6.86,6.86,0,0,0-5-3.71,9.61,9.61,0,0,0-4.34.21c-5.5,1.23-11,1.74-15.87-1.9-1.51-1.11-2.89-2.4-4.43-3.46a32.1,32.1,0,0,0-4.32-2.43c-4.28-2-5.34-.11-6.39,4.39a5,5,0,0,0,.44,2.3c.41,1.41.89,2.81,1.46,4.62-3.62.68-4.05,3.07-3.77,5.88a11.62,11.62,0,0,1,0,1.18,3.24,3.24,0,0,0,1.9,3.08,13.12,13.12,0,0,1,2.32,2.05c.56.53,1,1.37,1.66,1.58,2.76.88,4.1,3,4.88,5.48.84,2.67,2.63,3.17,5.21,3.23,7.31.16,14.32-1.52,21.3-3.23,4-1,7.45-3.12,8.55-7.63a14.4,14.4,0,0,1,.59-1.67,4.07,4.07,0,0,0-.46-3.93C542.38,450.27,541.05,448.29,539.94,446.21Zm-2.83,12.5a11.83,11.83,0,0,1-4.19,2c-6,1.26-11.85,3.19-18.07,2.82l-1.5-.07a22.44,22.44,0,0,1-1.23-2.45,7,7,0,0,0-4.52-4.72,3.43,3.43,0,0,1-1.4-1c-1.05-1.21-2-2.49-3.2-4,.67-.32,1.52-.7,2.35-1.13,1.72-.88,2.15-1.71,1.63-3.58-.56-2.06-1.26-4.08-2.11-6.79a19.31,19.31,0,0,1,2.44,1.74c2.84,2.86,6.39,4.61,9.9,6.4a6.76,6.76,0,0,0,2.81.72,41.26,41.26,0,0,0,11.77-.93c2.24-.58,2.8-.27,4.12,1.79.75,1.16,1.49,2.33,2.2,3.52C539.37,455.1,539.08,457.32,537.11,458.71Z"/><path d="M659.83,678.56c-.5,2.38-.58,4.85-.84,7.28l.23,0c0,1.57-.06,3.15,0,4.72a4.54,4.54,0,0,0,.56,2.22c1.22,1.79,2.56,3.5,3.91,5.19s3,1,4.62.61a3,3,0,0,0,2.75-2.65c.65-4.58,1.33-9.15,1.87-13.74.26-2.19-.18-2.79-2.26-3.53-2.31-.83-4.66-1.57-7-2.29S660.32,676.23,659.83,678.56Zm4.4,3.55,3.45.95c-.43,3.12-.83,6.09-1.27,9.29a3.42,3.42,0,0,1-2.17-3.28C664.23,686.93,664.23,684.78,664.23,682.11Z"/><path d="M658.54,672.12c.82,2.48,2.25,4,4.64,3.33h1.62c2.88-.1,3.73-1.15,3.17-3.92a19.92,19.92,0,0,1-.63-2.89c-.17-3.7-2.83-5.19-5.66-6.51-1.63-.75-2.66-.46-3.56,1-1.3,2.06-2.29,4.18-.67,6.59A9.67,9.67,0,0,1,658.54,672.12Z"/><path d="M359.17,321.56a53,53,0,0,0,3.86-16,2.8,2.8,0,0,0-1.88-3.27c-1.57-.59-3.11-1.29-4.71-1.74a3.44,3.44,0,0,0-2.54.13c-2.45,1.69-5.13,1.74-7.92,1.62a14.8,14.8,0,0,0-3.21.46c-2.75.51-3.15.86-3.36,3.59-.35,4.33-.64,8.66-.84,13-.28,6.12-.9,5.79,5.58,7.4,2.39.6,3.06.26,4.2-2,.44-.87.85-1.76,1.42-2.94,2,.56,3.81,1.11,5.61,1.55C357.46,323.84,358.37,323.42,359.17,321.56Zm-4.32-3.82-4.39-1.15c-3.1-.82-3.66-.56-5.08,2.31-.33.68-.71,1.33-1.06,2l-.68-.16c.27-4.29.54-8.57.83-13.25,1.55,0,2.89-.08,4.23,0a7.82,7.82,0,0,0,5.34-1.17,2.49,2.49,0,0,1,3.26.14C357.68,309.86,356.93,313.45,354.85,317.74Z"/></svg>